<?xml version="1.0" encoding="UTF-8" standalone="no"?>
<svg
   xmlns:dc="http://purl.org/dc/elements/1.1/"
   xmlns:cc="http://creativecommons.org/ns#"
   xmlns:rdf="http://www.w3.org/1999/02/22-rdf-syntax-ns#"
   xmlns:svg="http://www.w3.org/2000/svg"
   xmlns="http://www.w3.org/2000/svg"
   viewBox="0 0 1056 816"
   height="816"
   width="1056"
   xml:space="preserve"
   id="svg2"
   version="1.1"><metadata
     id="metadata8"><rdf:RDF><cc:Work
         rdf:about=""><dc:format>image/svg+xml</dc:format><dc:type
           rdf:resource="http://purl.org/dc/dcmitype/StillImage" /></cc:Work></rdf:RDF></metadata><defs
     id="defs6" /><g
     transform="matrix(1.3333333,0,0,-1.3333333,0,816)"
     id="g10"><g
       transform="scale(0.1)"
       id="g12"><path
         id="path14"
         style="fill:#ffffff;fill-opacity:1;fill-rule:nonzero;stroke:none"
         d="m 2047.08,3620.05 c 0,-28.92 14.12,-43.36 42.37,-43.36 h 278.84 c 30.87,0 46.96,14.44 48.28,43.36 l 85.72,759.67 221.7,-764.6 c 0.64,-7.24 5.42,-15.27 14.28,-24.14 8.87,-8.87 17.25,-13.3 25.13,-13.3 h 259.14 c 7.88,0 15.92,4.59 24.14,13.79 8.2,9.19 12.96,17.08 14.28,23.65 l 221.7,766.57 85.72,-761.64 c 1.31,-28.92 17.08,-43.36 47.3,-43.36 h 278.84 c 28.9,0 43.35,12.81 43.35,38.43 v 4.93 c -23,231.21 -46.48,460.63 -70.45,688.24 -23.98,227.6 -47.46,457.01 -70.45,688.24 -1.32,12.47 -6.74,22.81 -16.25,31.04 -9.53,8.2 -20.2,12.31 -32.03,12.31 h -336.97 c -24.31,0 -41.06,-12.48 -50.25,-37.44 l -269.98,-894.66 -268,894.66 c -7.24,24.96 -23.01,37.44 -47.3,37.44 h -340.92 c -14.45,0 -25.62,-4.28 -33.5,-12.81 -7.88,-8.54 -12.48,-18.72 -13.79,-30.54 z m 1796.01,0 c 0,-28.92 14.12,-43.36 42.37,-43.36 h 278.84 c 30.87,0 46.96,14.44 48.28,43.36 l 85.72,759.67 221.7,-764.6 c 0.65,-7.24 5.42,-15.27 14.29,-24.14 8.87,-8.87 17.24,-13.3 25.12,-13.3 h 259.14 c 7.88,0 15.92,4.59 24.14,13.79 8.21,9.19 12.96,17.08 14.29,23.65 l 221.69,766.57 85.72,-761.64 c 1.31,-28.92 17.08,-43.36 47.3,-43.36 h 278.84 c 28.9,0 43.36,12.81 43.36,38.43 v 4.93 c -23,231.21 -46.48,460.63 -70.45,688.24 -23.99,227.6 -47.47,457.01 -70.45,688.24 -1.33,12.47 -6.75,22.81 -16.26,31.04 -9.53,8.2 -20.2,12.31 -32.02,12.31 h -336.98 c -24.31,0 -41.06,-12.48 -50.25,-37.44 l -269.98,-894.66 -268,894.66 c -7.24,24.96 -23,37.44 -47.3,37.44 h -340.91 c -14.46,0 -25.62,-4.28 -33.51,-12.81 -7.88,-8.54 -12.48,-18.72 -13.79,-30.54 z m 1749.62,-4.7 c -5.27,-13.14 -3.79,-23 4.43,-29.55 8.21,-6.58 18.55,-9.86 31.04,-9.86 h 290.66 c 24.96,0 41.71,12.15 50.25,36.46 12.48,33.5 25.13,66.83 37.94,100.01 12.81,33.16 25.45,66.51 37.93,100.01 h 523.2 c 12.47,-33.5 24.96,-66.85 37.45,-100.01 12.47,-33.18 25.28,-66.51 38.42,-100.01 4.59,-13.15 11,-22.51 19.22,-28.08 8.2,-5.59 19.86,-8.38 34.98,-8.38 h 282.78 c 17.74,0 30.21,4.1 37.44,12.32 7.22,8.2 8.21,18.87 2.96,32.02 l -517.29,1334.11 -24.63,56.17 c -3.94,5.25 -9.86,11.33 -17.74,18.23 -7.88,6.89 -17.41,10.34 -28.57,10.34 h -252.24 c -5.27,0 -10.84,-1.15 -16.75,-3.45 -5.91,-2.31 -11.5,-5.42 -16.75,-9.36 -5.27,-3.94 -9.7,-8.22 -13.31,-12.81 -3.61,-4.6 -5.75,-8.86 -6.4,-12.81 z m 865.1,513.35 h -302.49 c 12.47,33.5 25.12,69.47 37.93,107.89 12.81,38.43 25.45,77.35 37.94,116.76 12.47,39.42 25.12,78.49 37.93,117.26 12.81,38.75 25.45,74.88 37.94,108.38 z M 868.957,4999.27 c 0,13.79 3.758,24.78 11.301,33.01 7.527,8.2 18.18,12.31 31.945,12.31 h 977.537 c 14.44,0 25.62,-4.26 33.5,-12.78 7.88,-8.51 11.82,-19.96 11.82,-34.37 v -243.65 c 0,-11.15 -3.94,-21.79 -11.82,-31.93 -7.88,-10.16 -19.38,-15.23 -34.49,-15.23 h -638.48 v -244.36 h 492.66 c 12.47,0 22.81,-2.95 31.04,-8.87 8.2,-5.91 12.31,-15.76 12.31,-29.55 v -212.83 c 0,-9.21 -3.62,-18.08 -10.84,-26.61 -7.23,-8.54 -17.73,-12.8 -31.53,-12.8 h -493.64 v -252.24 h 662.13 c 29.56,0 44.34,-15.08 44.34,-45.19 v -247.59 c 0,-6.56 -2.63,-12.44 -7.88,-17.68 -2.63,-18.35 -16.11,-27.51 -40.4,-27.51 H 912.203 c -13.117,0 -23.601,3.45 -31.453,10.35 -7.867,6.9 -11.793,17.57 -11.793,32.02 v 1375.5" /><path
         id="path16"
         style="fill:#ffffff;fill-opacity:1;fill-rule:nonzero;stroke:none"
         d="m 1743.37,2538.52 c -67.7,21.29 -139.68,31.95 -215.96,31.95 -67.39,0 -132.06,-8.75 -194.03,-26.23 -61.98,-17.48 -119.99,-41.95 -174.01,-73.41 -54.04,-31.47 -103.14,-69.46 -147.31,-113.94 -44.193,-44.5 -82.165,-93.92 -113.943,-148.27 -31.793,-54.34 -56.254,-112.51 -73.418,-174.48 -17.164,-61.98 -25.742,-126.66 -25.742,-194.03 0,-67.39 8.578,-132.06 25.742,-194.03 17.164,-61.98 41.625,-119.83 73.418,-173.54 31.778,-53.72 69.75,-102.66 113.943,-146.83 44.17,-44.19 93.27,-82.16 147.31,-113.94 54.02,-31.79 112.03,-56.26 174.01,-73.42 61.97,-17.16 126.64,-25.74 194.03,-25.74 76.28,0 148.89,10.96 217.87,32.89 68.96,21.93 133.32,52.92 193.07,92.97 10.8,6.34 18.75,14.3 23.84,23.83 5.08,9.54 4.13,21.29 -2.86,35.28 l -163.04,234.56 c -7.63,10.16 -15.26,15.88 -22.89,17.16 -7.62,1.26 -17.16,-1.6 -28.6,-8.58 -31.15,-23.53 -65.79,-41.81 -103.93,-54.83 -38.14,-13.03 -78.18,-19.54 -120.14,-19.54 -52.12,0 -100.11,9.84 -143.97,29.55 -43.86,19.7 -81.69,46.56 -113.46,80.57 -31.8,34 -56.59,73.73 -74.37,119.19 -17.81,45.43 -26.7,94.23 -26.7,146.35 0,52.12 8.89,101.07 26.7,146.84 17.78,45.76 42.57,85.81 74.37,120.14 31.77,34.32 69.6,61.33 113.46,81.04 43.86,19.7 91.85,29.56 143.97,29.56 41.96,0 81.67,-6.36 119.19,-19.07 37.5,-12.72 71.82,-30.84 102.97,-54.35 11.44,-7 21.13,-9.7 29.08,-8.1 7.94,1.58 15.41,7.77 22.41,18.59 l 161.14,228.83 c 6.98,13.98 7.94,26.06 2.86,36.23 -5.1,10.16 -13.04,18.43 -23.84,24.79 -59.76,40.05 -123.47,70.71 -191.17,92.01 z m 644.57,-31.01 c 0,12.08 -5.24,22.09 -15.7,30.05 -10.46,7.95 -20.44,11.93 -29.95,11.93 h -285.31 c -10.78,0 -19.81,-4.29 -27.1,-12.87 -7.3,-8.58 -10.93,-18.28 -10.93,-29.08 v -803.78 c 0,-109.34 16.36,-201.66 49.1,-276.98 32.73,-75.33 76.76,-136.35 132.06,-183.07 55.3,-46.72 119.49,-80.42 192.6,-101.07 73.09,-20.65 149.69,-30.98 229.78,-30.98 80.1,0 156.52,10.01 229.31,30.03 72.78,20.02 136.83,53.07 192.13,99.16 55.3,46.08 99.31,106.94 132.05,182.59 32.73,75.64 49.11,169.08 49.11,280.32 v 803.78 c 0,10.8 -4.14,20.5 -12.4,29.08 -8.27,8.58 -19.71,12.87 -34.32,12.87 h -278.42 c -13.34,0 -24,-4.14 -31.94,-12.41 -7.95,-8.27 -11.92,-18.13 -11.92,-29.57 v -809.25 c 0,-41.99 -6.21,-79.21 -18.63,-111.66 -12.43,-32.45 -29.31,-59.63 -50.64,-81.58 -21.34,-21.96 -46.18,-38.5 -74.52,-49.62 -28.34,-11.15 -58.43,-16.7 -90.28,-16.7 -30.57,0 -60.04,4.76 -88.38,14.31 -28.35,9.54 -53.2,24.64 -74.53,45.32 -21.34,20.68 -38.54,47.39 -51.59,80.17 -13.05,32.76 -19.58,72.69 -19.58,119.76 z m 931.45,-1332.93 c 0,-13.98 3.81,-24.31 11.44,-30.98 7.63,-6.68 17.79,-10.02 30.51,-10.02 h 283.18 c 29.23,0 43.86,13.67 43.86,41 v 430.02 h 154.46 l 231.69,-435.74 c 2.54,-10.81 8.11,-19.39 16.69,-25.74 8.58,-6.36 18.27,-9.54 29.08,-9.54 h 327.04 c 11.44,0 20.5,2.7 27.18,8.11 6.67,5.39 10.01,13.18 10.01,23.36 0,8.89 -3.5,19.38 -10.49,31.46 -7,12.07 -12.72,22.56 -17.16,31.47 l -245.05,461.48 c 34.33,19.69 65.94,43.38 94.88,71.03 28.91,27.65 53.87,58.48 74.84,92.49 20.98,34 37.34,70.56 49.11,109.65 11.75,39.09 17.64,80.24 17.64,123.47 0,63.56 -12.25,123.48 -36.71,179.73 -24.48,56.26 -58.02,105.36 -100.59,147.31 -42.6,41.96 -92.49,75.16 -149.7,99.64 -57.21,24.46 -118.56,36.71 -184.02,36.71 h -615.94 c -13.99,0 -24.48,-3.98 -31.47,-11.92 -7,-7.95 -10.48,-18.59 -10.48,-31.94 z m 737.03,848.12 c -6.36,-19.4 -15.58,-36.88 -27.65,-52.44 -12.08,-15.59 -27.03,-28.61 -44.81,-39.1 -17.81,-10.48 -37.83,-17.01 -60.07,-19.54 -10.82,-1.28 -20.67,-2.24 -29.56,-2.86 -8.91,-0.64 -19.07,-0.96 -30.51,-0.96 h -175.44 v 349.93 h 131.58 c 18.43,0 35.43,-0.48 51.01,-1.43 15.57,-0.96 32.25,-2.07 50.06,-3.34 21.6,-3.19 41.31,-10.18 59.11,-20.98 17.79,-10.81 33.05,-24.16 45.77,-40.04 12.71,-15.9 22.55,-33.37 29.56,-52.44 6.98,-19.07 10.48,-38.14 10.48,-57.21 0,-20.35 -3.18,-40.21 -9.53,-59.59 z m 422.23,248.24 c 0,-15.85 4.29,-27.9 12.87,-36.14 8.58,-8.24 19.22,-12.35 31.94,-12.35 h 328 V 1178.44 c 0,-12.72 4.75,-23.39 14.25,-31.97 9.51,-8.59 19.65,-12.89 30.44,-12.89 h 279.61 c 13.3,0 24.07,4.61 32.32,13.85 8.24,9.22 12.37,19.56 12.37,31.01 v 1044.01 h 328.95 c 14.61,0 25.89,5.23 33.85,15.69 7.94,10.45 11.91,21.39 11.91,32.8 v 236.72 c -1.28,13.94 -6.36,24.4 -15.25,31.37 -8.91,6.97 -19.07,10.46 -30.51,10.46 H 4523.46 c -12.72,0 -23.36,-3.81 -31.94,-11.41 -8.58,-7.62 -12.87,-17.76 -12.87,-30.42 z m 1197.31,-1095.4 c 0,-27.98 13.97,-41.96 41.95,-41.96 h 280.32 c 31.14,0 46.72,13.98 46.72,41.96 v 1332 c 0,12.7 -5.41,22.88 -16.21,30.51 -10.82,7.63 -20.98,11.44 -30.51,11.44 h -280.32 c -13.99,0 -24.48,-4.14 -31.47,-12.4 -7,-8.26 -10.48,-18.11 -10.48,-29.55 z m 657.43,432.87 c -6.37,3.82 -12.4,5.72 -18.12,5.72 -8.27,0 -19.07,-4.76 -32.42,-14.3 L 6117.9,1442.51 c -14.63,-13.39 -21.93,-25.51 -21.93,-36.34 0,-9.56 7.3,-22.31 21.93,-38.25 0.63,-0.65 1.27,-1.12 1.91,-1.44 0.62,-0.32 1.26,-1.11 1.91,-2.38 0.62,-0.65 1.26,-1.13 1.9,-1.44 0.63,-0.33 1.27,-1.12 1.91,-2.39 l 2.86,-2.87 c 10.16,-10.85 23.99,-25.18 41.48,-43.03 17.47,-17.85 38.92,-36.02 64.35,-54.51 61.03,-43.99 126.82,-79.06 197.37,-105.19 70.56,-26.12 142.38,-39.2 215.49,-39.2 77.54,0 150.01,10.96 217.39,32.89 67.37,21.93 126.01,52.92 175.91,92.97 49.9,40.04 89.15,88.51 117.76,145.4 28.6,56.88 42.9,120.29 42.9,190.22 0,66.1 -11.6,122.36 -34.8,168.76 -23.21,46.4 -55.46,86.29 -96.77,119.66 -41.33,33.38 -90.44,62.29 -147.32,86.77 -56.89,24.46 -119.03,47.82 -186.4,70.08 -34.97,11.44 -65.64,22.08 -92.01,31.94 -26.38,9.85 -48.48,20.34 -66.27,31.47 -17.8,11.11 -31.15,23.19 -40.04,36.23 -8.91,13.02 -13.35,28.44 -13.35,46.24 0,17.79 4.13,32.9 12.4,45.29 8.25,12.4 19.38,22.41 33.37,30.03 13.97,7.63 30.18,13.19 48.62,16.69 18.43,3.49 38.14,5.24 59.12,5.24 20.33,0 40.36,-3.02 60.07,-9.05 19.69,-6.05 38.45,-13.68 56.25,-22.89 17.79,-9.22 34.48,-19.54 50.06,-30.98 15.57,-11.45 29.71,-22.57 42.43,-33.38 l 8.58,-7.62 c 8.89,-7.63 17,-13.99 24.31,-19.07 7.3,-5.1 15.41,-7.63 24.32,-7.63 10.8,0 21.6,5.39 32.42,16.21 l 145.88,155.41 c 8.25,8.9 14.45,16.84 18.59,23.84 4.13,6.99 6.2,14.62 6.2,22.88 0,8.26 -4.29,18.12 -12.88,29.56 -8.58,11.44 -20.18,23.51 -34.8,36.23 -14.63,12.71 -31.63,25.9 -51.01,39.57 -19.39,13.66 -39.89,26.85 -61.5,39.57 -51.48,28.61 -103.78,49.42 -156.84,62.45 -53.08,13.03 -108.55,19.55 -166.38,19.55 -76.92,0 -146.52,-9.37 -208.81,-28.11 -62.31,-18.74 -115.54,-45.25 -159.71,-79.54 -44.19,-34.3 -78.18,-75.58 -102.02,-123.85 -23.84,-48.27 -35.76,-101.95 -35.76,-161 0,-55.9 9.54,-106.55 28.61,-151.96 19.07,-45.41 47.67,-87.02 85.81,-124.8 38.14,-37.78 85.81,-72.08 143.02,-102.89 57.21,-30.81 123.95,-59.54 200.23,-86.21 17.16,-5.72 37.5,-12.86 61.02,-21.44 23.51,-8.58 46.08,-18.89 67.7,-30.96 21.6,-12.07 39.88,-25.89 54.82,-41.44 14.93,-15.56 22.41,-33.18 22.41,-52.86 0,-17.79 -2.71,-34.63 -8.11,-50.51 -5.4,-15.88 -14.46,-29.84 -27.17,-41.9 -12.72,-12.07 -30.03,-21.77 -51.96,-29.07 -21.93,-7.3 -49.11,-10.95 -81.52,-10.95 -34.97,0 -68.34,6.03 -100.12,18.12 -31.79,12.06 -63.88,28.91 -96.3,50.53 -21.62,14.61 -40.85,29.39 -57.69,44.34 -16.84,14.92 -30.67,26.84 -41.47,35.75 -8.91,7.63 -16.54,13.35 -22.88,17.16" /><path
         id="path18"
         style="fill:#ffffff;fill-opacity:1;fill-rule:nonzero;stroke:none"
         d="m 1067.66,3213.87 c -14.2,4.46 -29.3,6.7 -45.3,6.7 -14.14,0 -27.704,-1.84 -40.704,-5.5 -13,-3.67 -25.168,-8.8 -36.5,-15.4 -11.336,-6.6 -21.633,-14.57 -30.898,-23.9 -9.27,-9.34 -17.235,-19.7 -23.903,-31.1 -6.667,-11.4 -11.8,-23.6 -15.398,-36.6 -3.602,-13 -5.402,-26.57 -5.402,-40.7 0,-14.14 1.8,-27.7 5.402,-40.7 3.598,-13 8.731,-25.14 15.398,-36.4 6.668,-11.27 14.633,-21.54 23.903,-30.8 9.265,-9.27 19.562,-17.24 30.898,-23.9 11.332,-6.67 23.5,-11.8 36.5,-15.4 13,-3.6 26.564,-5.4 40.704,-5.4 16,0 31.23,2.3 45.7,6.9 14.46,4.6 27.96,11.1 40.5,19.5 2.26,1.33 3.93,3 5,5 1.06,2 0.86,4.46 -0.6,7.4 l -34.2,49.2 c -1.6,2.13 -3.2,3.33 -4.8,3.6 -1.6,0.26 -3.6,-0.34 -6,-1.8 -6.54,-4.94 -13.8,-8.77 -21.8,-11.5 -8,-2.74 -16.4,-4.1 -25.2,-4.1 -10.94,0 -21.003,2.06 -30.202,6.2 -9.203,4.13 -17.137,9.76 -23.801,16.9 -6.672,7.13 -11.871,15.46 -15.602,25 -3.734,9.53 -5.597,19.76 -5.597,30.7 0,10.93 1.863,21.2 5.597,30.8 3.731,9.6 8.93,18 15.602,25.2 6.664,7.2 14.598,12.86 23.801,17 9.199,4.13 19.262,6.2 30.202,6.2 8.8,0 17.13,-1.34 25,-4 7.86,-2.67 15.06,-6.47 21.6,-11.4 2.4,-1.47 4.43,-2.04 6.1,-1.7 1.66,0.33 3.23,1.63 4.7,3.9 l 33.8,48 c 1.46,2.93 1.66,5.46 0.6,7.6 -1.07,2.13 -2.74,3.86 -5,5.2 -12.54,8.4 -25.9,14.83 -40.1,19.3 z m 230.78,-115.4 c 3.73,9.66 8.95,18.1 15.68,25.3 6.72,7.2 14.68,12.86 23.87,17 9.18,4.13 19.3,6.2 30.36,6.2 11.05,0 21.2,-2.07 30.46,-6.2 9.25,-4.14 17.24,-9.8 23.96,-17 6.73,-7.2 11.96,-15.64 15.68,-25.3 3.73,-9.67 5.6,-19.97 5.6,-30.9 0,-11.07 -1.87,-21.4 -5.6,-31 -3.72,-9.6 -8.95,-17.97 -15.68,-25.1 -6.72,-7.14 -14.71,-12.74 -23.96,-16.8 -9.26,-4.07 -19.41,-6.1 -30.46,-6.1 -11.06,0 -21.18,2.03 -30.36,6.1 -9.19,4.06 -17.15,9.66 -23.87,16.8 -6.73,7.13 -11.95,15.5 -15.68,25.1 -3.73,9.6 -5.59,19.93 -5.59,31 0,10.93 1.86,21.23 5.59,30.9 z m -77.59,-71.8 c 3.6,-13 8.74,-25.14 15.41,-36.4 6.67,-11.27 14.64,-21.54 23.92,-30.8 9.27,-9.27 19.57,-17.24 30.91,-23.9 11.34,-6.67 23.52,-11.8 36.53,-15.4 13.01,-3.6 26.58,-5.4 40.73,-5.4 14,0 27.55,1.8 40.62,5.4 13.08,3.6 25.29,8.73 36.63,15.4 11.34,6.66 21.68,14.63 31.02,23.9 9.34,9.26 17.31,19.53 23.91,30.8 6.61,11.26 11.74,23.4 15.41,36.4 3.67,13 5.51,26.56 5.51,40.7 0,14.13 -1.84,27.7 -5.51,40.7 -3.67,13 -8.8,25.2 -15.41,36.6 -6.6,11.4 -14.57,21.76 -23.91,31.1 -9.34,9.33 -19.68,17.3 -31.02,23.9 -11.34,6.6 -23.55,11.73 -36.63,15.4 -13.07,3.66 -26.62,5.5 -40.62,5.5 -14.15,0 -27.72,-1.84 -40.73,-5.5 -13.01,-3.67 -25.19,-8.8 -36.53,-15.4 -11.34,-6.6 -21.64,-14.57 -30.91,-23.9 -9.28,-9.34 -17.25,-19.7 -23.92,-31.1 -6.67,-11.4 -11.81,-23.6 -15.41,-36.6 -3.6,-13 -5.4,-26.57 -5.4,-40.7 0,-14.14 1.8,-27.7 5.4,-40.7 z m 504.37,180.69 c 0,2.53 -1.1,4.63 -3.3,6.3 -2.19,1.67 -4.29,2.51 -6.28,2.51 h -59.85 c -2.26,0 -4.15,-0.9 -5.68,-2.7 -1.53,-1.8 -2.29,-3.84 -2.29,-6.1 v -168.6 c 0,-22.94 3.43,-42.3 10.3,-58.1 6.86,-15.8 16.1,-28.6 27.7,-38.4 11.6,-9.8 25.06,-16.87 40.4,-21.2 15.33,-4.34 31.4,-6.5 48.2,-6.5 16.8,0 32.83,2.1 48.1,6.3 15.26,4.2 28.7,11.13 40.3,20.8 11.6,9.66 20.83,22.43 27.7,38.3 6.86,15.86 10.3,35.46 10.3,58.8 v 168.6 c 0,2.26 -0.87,4.3 -2.6,6.1 -1.74,1.8 -4.14,2.7 -7.2,2.7 h -58.4 c -2.8,0 -5.04,-0.87 -6.7,-2.61 -1.67,-1.73 -2.5,-3.8 -2.5,-6.2 v -169.75 c 0,-8.81 -1.31,-16.61 -3.91,-23.42 -2.61,-6.81 -6.15,-12.51 -10.63,-17.11 -4.47,-4.61 -9.68,-8.08 -15.63,-10.41 -5.94,-2.34 -12.25,-3.5 -18.93,-3.5 -6.42,0 -12.6,1 -18.54,3 -5.95,2 -11.16,5.17 -15.64,9.5 -4.47,4.34 -8.08,9.95 -10.82,16.82 -2.74,6.87 -4.1,15.25 -4.1,25.12 z m 317.24,-279.59 c 0,-2.4 0.7,-4.44 2.1,-6.1 1.4,-1.67 3.64,-2.5 6.7,-2.5 h 56.8 c 3.47,0 5.87,0.73 7.2,2.2 1.34,1.46 2,3.66 2,6.6 v 171.8 c 17.87,-29.34 35.47,-58.34 52.8,-87 17.34,-28.67 34.87,-57.67 52.6,-87 1.47,-2 2.87,-3.6 4.2,-4.8 1.34,-1.2 2.87,-1.8 4.6,-1.8 h 63.8 c 2.8,0 5,0.63 6.6,1.9 1.6,1.26 2.4,3.23 2.4,5.9 v 280.4 c 0,2.8 -0.93,4.96 -2.8,6.5 -1.86,1.53 -4.2,2.3 -7,2.3 h -57 c -2.13,0 -4,-0.67 -5.6,-2 -1.6,-1.34 -2.66,-3.2 -3.2,-5.6 v -160.2 c -17.06,27.33 -33.93,54.26 -50.6,80.8 -16.66,26.53 -33.46,53.46 -50.4,80.8 -1.46,2.26 -3.2,3.86 -5.2,4.8 -2,0.93 -3.93,1.4 -5.8,1.4 h -65.4 c -2.93,0 -5.13,-0.87 -6.6,-2.6 -1.46,-1.74 -2.2,-3.8 -2.2,-6.2 z m 590.95,286.1 c -14.2,4.46 -29.3,6.7 -45.3,6.7 -14.13,0 -27.7,-1.84 -40.7,-5.5 -13,-3.67 -25.17,-8.8 -36.5,-15.4 -11.33,-6.6 -21.63,-14.57 -30.9,-23.9 -9.27,-9.34 -17.23,-19.7 -23.9,-31.1 -6.67,-11.4 -11.8,-23.6 -15.4,-36.6 -3.6,-13 -5.4,-26.57 -5.4,-40.7 0,-14.14 1.8,-27.7 5.4,-40.7 3.6,-13 8.73,-25.14 15.4,-36.4 6.67,-11.27 14.63,-21.54 23.9,-30.8 9.27,-9.27 19.57,-17.24 30.9,-23.9 11.33,-6.67 23.5,-11.8 36.5,-15.4 13,-3.6 26.57,-5.4 40.7,-5.4 16,0 31.23,2.3 45.7,6.9 14.47,4.6 27.97,11.1 40.5,19.5 2.27,1.33 3.93,3 5,5 1.07,2 0.87,4.46 -0.6,7.4 l -34.2,49.2 c -1.6,2.13 -3.2,3.33 -4.8,3.6 -1.6,0.26 -3.6,-0.34 -6,-1.8 -6.53,-4.94 -13.8,-8.77 -21.8,-11.5 -8,-2.74 -16.4,-4.1 -25.2,-4.1 -10.93,0 -21,2.06 -30.2,6.2 -9.2,4.13 -17.13,9.76 -23.8,16.9 -6.67,7.13 -11.87,15.46 -15.6,25 -3.73,9.53 -5.6,19.76 -5.6,30.7 0,10.93 1.87,21.2 5.6,30.8 3.73,9.6 8.93,18 15.6,25.2 6.67,7.2 14.6,12.86 23.8,17 9.2,4.13 19.27,6.2 30.2,6.2 8.8,0 17.13,-1.34 25,-4 7.87,-2.67 15.07,-6.47 21.6,-11.4 2.4,-1.47 4.43,-2.04 6.1,-1.7 1.67,0.33 3.23,1.63 4.7,3.9 l 33.8,48 c 1.47,2.93 1.67,5.46 0.6,7.6 -1.07,2.13 -2.73,3.86 -5,5.2 -12.53,8.4 -25.9,14.83 -40.1,19.3 z m 169.87,-285.9 c 0,-5.87 2.93,-8.8 8.8,-8.8 h 58.8 c 6.53,0 9.8,2.93 9.8,8.8 v 279.4 c 0,2.66 -1.13,4.8 -3.4,6.4 -2.27,1.6 -4.4,2.4 -6.4,2.4 h -58.8 c -2.93,0 -5.13,-0.87 -6.6,-2.6 -1.47,-1.74 -2.2,-3.8 -2.2,-6.2 z m 219.41,0 c 0,-5.87 2.93,-8.8 8.8,-8.8 h 178.6 c 2.8,0.13 4.97,1.13 6.5,3 1.53,1.86 2.3,3.93 2.3,6.2 v 52.6 c 0,2.8 -0.87,5 -2.6,6.6 -1.73,1.6 -3.8,2.4 -6.2,2.4 h -110 v 217.6 c -0.13,2.66 -1.13,4.8 -3,6.4 -1.87,1.6 -3.93,2.4 -6.2,2.4 h -59.2 c -2.8,0 -5,-0.87 -6.6,-2.6 -1.6,-1.74 -2.4,-3.8 -2.4,-6.2 v -279.6" /><path
         id="path20"
         style="fill:#ffffff;fill-opacity:1;fill-rule:nonzero;stroke:none"
         d="m 4739.04,3124.12 c -7.73,17.88 -18.33,33.46 -31.8,46.73 -13.48,13.27 -29.3,23.69 -47.47,31.29 -18.16,7.59 -37.75,11.38 -58.76,11.38 h -95.12 c -6.08,0 -9.11,-3.1 -9.11,-9.3 v -276.44 c 0,-3.43 0.92,-5.68 2.77,-6.73 1.85,-1.06 3.96,-1.59 6.34,-1.59 h 95.12 c 13.88,0 27.19,1.72 39.94,5.15 12.74,3.43 24.67,8.28 35.77,14.56 11.09,6.26 21.17,13.82 30.22,22.67 9.05,8.84 16.81,18.71 23.28,29.6 6.47,10.89 11.5,22.64 15.06,35.25 3.57,12.61 5.36,25.77 5.36,39.51 0,20.72 -3.87,40.03 -11.6,57.92 z m -140.09,35.14 c 12.94,0 25.15,-2.21 36.64,-6.64 11.48,-4.43 21.51,-10.67 30.1,-18.73 8.58,-8.06 15.34,-17.74 20.29,-29.04 4.95,-11.3 7.43,-23.76 7.43,-37.37 0,-12.82 -2.28,-24.81 -6.83,-35.98 -4.56,-11.16 -10.89,-20.91 -19.01,-29.24 -8.12,-8.32 -17.73,-14.96 -28.81,-19.92 -11.09,-4.96 -23.17,-7.63 -36.24,-8.03 -9.9,-0.39 -19.8,-0.59 -29.71,-0.59 H 4554 v 185.54 z m 226.73,-231.08 c 0,-5.81 2.9,-8.72 8.68,-8.72 h 39.27 c 6.19,0 9.28,2.91 9.28,8.72 v 276.63 c 0,2.64 -0.99,4.75 -2.96,6.34 -1.97,1.58 -4.08,2.37 -6.32,2.37 h -39.27 c -2.89,0 -5.06,-0.86 -6.51,-2.57 -1.45,-1.72 -2.17,-3.76 -2.17,-6.14 z m 314.3,208.71 c 1.71,1.19 3.63,2.67 5.74,4.45 2.11,1.79 4.22,3.8 6.34,6.04 2.11,2.25 4.16,4.43 6.14,6.54 v -0.2 l 5.94,6.34 c 1.18,1.32 2.17,2.8 2.97,4.45 0.79,1.65 1.18,3.27 1.18,4.85 0,1.72 -0.89,3.8 -2.67,6.24 -1.78,2.44 -4.06,4.95 -6.83,7.53 -2.77,2.57 -5.81,5.11 -9.11,7.62 -3.3,2.51 -6.53,4.75 -9.7,6.73 -10.57,6.6 -22.05,11.78 -34.46,15.55 -12.41,3.76 -24.62,5.64 -36.63,5.64 -15.84,0 -30.17,-2.01 -42.97,-6.04 -12.81,-4.03 -23.76,-9.64 -32.87,-16.83 -9.11,-7.2 -16.14,-15.84 -21.09,-25.94 -4.95,-10.1 -7.43,-21.29 -7.43,-33.57 0,-10.95 2.01,-20.82 6.04,-29.6 4.03,-8.78 10.07,-16.7 18.12,-23.76 8.05,-7.07 18.12,-13.44 30.2,-19.11 12.08,-5.68 26.17,-10.96 42.28,-15.84 6.99,-1.98 13.96,-4.1 20.89,-6.34 6.93,-2.25 13.17,-4.92 18.71,-8.02 5.54,-3.1 10.03,-6.73 13.47,-10.89 3.43,-4.16 5.14,-9.14 5.14,-14.95 0,-5.81 -1.32,-11.09 -3.96,-15.84 -2.64,-4.75 -6.27,-8.81 -10.89,-12.18 -4.62,-3.37 -10.1,-5.97 -16.43,-7.82 -6.34,-1.85 -13.14,-2.77 -20.4,-2.77 -5.28,0 -10.92,0.89 -16.93,2.67 -6.01,1.78 -12.05,4.22 -18.12,7.33 -6.07,3.1 -11.98,6.63 -17.72,10.59 -5.74,3.96 -10.93,8.12 -15.55,12.48 h 0.2 l -0.79,0.79 c -1.06,1.05 -2.38,2.18 -3.96,3.36 -1.58,1.19 -3.3,1.79 -5.15,1.79 -1.19,0 -2.74,-0.6 -4.65,-1.79 -1.92,-1.18 -4,-2.64 -6.24,-4.35 -2.25,-1.72 -4.49,-3.64 -6.73,-5.75 -2.25,-2.11 -4.36,-4.02 -6.34,-5.74 l -6.53,-6.53 c -1.59,-1.59 -2.78,-3.04 -3.57,-4.36 -0.79,-1.32 -1.19,-2.71 -1.19,-4.16 0,-2.77 1.45,-5.81 4.36,-9.11 l 0.4,-0.79 v 0.2 c 6.46,-7.66 13.82,-14.55 22.07,-20.69 8.25,-6.14 17,-11.39 26.24,-15.75 9.24,-4.35 18.88,-7.72 28.91,-10.1 10.03,-2.37 20.13,-3.56 30.3,-3.56 15.84,0 30.66,2.21 44.46,6.63 13.79,4.43 25.8,10.76 36.04,19.01 10.22,8.25 18.24,18.19 24.05,29.81 5.81,11.61 8.72,24.62 8.72,39.01 0,8.84 -1.36,16.79 -4.06,23.86 -2.71,7.06 -6.41,13.46 -11.09,19.21 -4.69,5.74 -10.27,10.82 -16.73,15.24 -6.47,4.42 -13.44,8.45 -20.89,12.08 -7.46,3.63 -15.29,6.9 -23.47,9.8 -8.19,2.91 -16.44,5.61 -24.75,8.12 -7.26,2.25 -14.19,4.52 -20.79,6.83 -6.61,2.31 -12.45,4.86 -17.53,7.63 -5.08,2.77 -9.11,5.94 -12.08,9.5 -2.97,3.57 -4.45,7.73 -4.45,12.48 0,4.35 0.99,8.45 2.97,12.28 1.98,3.82 4.88,7.16 8.71,10 3.83,2.83 8.58,5.08 14.26,6.73 5.67,1.65 12.21,2.47 19.6,2.47 5.81,0 11.52,-0.92 17.13,-2.77 5.61,-1.85 10.86,-4.09 15.74,-6.73 4.88,-2.64 9.31,-5.48 13.27,-8.52 3.96,-3.03 7.19,-5.81 9.7,-8.31 l 0.4,-0.2 c 1.85,-1.46 3.49,-2.61 4.95,-3.47 1.45,-0.86 3.03,-1.28 4.75,-1.28 1.19,0 2.64,0.59 4.36,1.78 z m 89.58,33.27 c 0,-3.31 0.86,-5.78 2.57,-7.43 1.72,-1.65 3.9,-2.47 6.54,-2.47 h 75.44 v -231.69 c 0,-2.64 0.96,-4.82 2.87,-6.53 1.92,-1.72 4.06,-2.58 6.44,-2.58 h 39.01 c 2.9,0 5.18,0.92 6.83,2.78 1.65,1.84 2.48,3.96 2.48,6.33 v 231.69 h 75.24 c 3.17,0 5.58,0.99 7.23,2.97 1.65,1.98 2.48,4.28 2.48,6.93 v 34.65 c -0.27,2.9 -1.36,5.08 -3.27,6.53 -1.91,1.46 -4.06,2.18 -6.44,2.18 h -208.31 c -2.64,0 -4.82,-0.79 -6.54,-2.37 -1.71,-1.59 -2.57,-3.7 -2.57,-6.34 z m 290.21,-242.18 c 0,-2.91 0.79,-5.05 2.38,-6.44 1.58,-1.38 3.69,-2.08 6.34,-2.08 h 39.8 c 6.07,0 9.11,2.84 9.11,8.52 v 93.66 c 10.95,0 19.9,0 26.83,0 6.93,0 12.54,0 16.83,0 4.29,0 7.65,0.03 10.1,0.1 2.44,0.07 4.72,0.1 6.83,0.1 l 47.92,-95.05 c 1.59,-4.89 4.75,-7.33 9.51,-7.33 h 45.94 c 4.62,0 6.93,1.98 6.93,5.94 0,1.45 -0.33,2.84 -0.99,4.16 -0.66,1.32 -1.13,2.64 -1.39,3.96 l -51.48,101.59 c 7.52,3.96 14.38,8.81 20.59,14.55 6.2,5.74 11.55,12.18 16.04,19.31 4.49,7.13 7.99,14.85 10.49,23.17 2.51,8.31 3.77,17.03 3.77,26.13 0,13.07 -2.48,25.42 -7.43,37.03 -4.95,11.62 -11.75,21.72 -20.39,30.3 -8.65,8.58 -18.79,15.38 -30.4,20.4 -11.62,5.01 -24.09,7.52 -37.43,7.52 h -121.18 c -5.82,0 -8.72,-3.1 -8.72,-9.3 z m 163.86,173.1 c -2.04,-5.33 -4.92,-10.07 -8.61,-14.22 -3.7,-4.15 -8.15,-7.48 -13.37,-9.98 -5.21,-2.5 -10.92,-3.95 -17.12,-4.35 -2.65,-0.26 -5.12,-0.39 -7.43,-0.39 -2.31,0 -4.79,0 -7.43,0 h -52.27 v 91.88 h 39.01 c 4.75,0 9.33,-0.04 13.76,-0.1 4.42,-0.07 8.94,-0.17 13.56,-0.3 6.21,-0.39 11.95,-1.91 17.23,-4.54 5.28,-2.64 9.83,-6.07 13.66,-10.28 3.83,-4.21 6.8,-8.99 8.91,-14.32 2.12,-5.34 3.17,-10.84 3.17,-16.5 0,-5.93 -1.02,-11.56 -3.07,-16.9 z M 5821,2928.18 c 0,-5.81 2.89,-8.72 8.68,-8.72 h 39.27 c 6.18,0 9.28,2.91 9.28,8.72 v 276.63 c 0,2.64 -0.99,4.75 -2.97,6.34 -1.97,1.58 -4.07,2.37 -6.31,2.37 h -39.27 c -2.9,0 -5.06,-0.86 -6.51,-2.57 -1.45,-1.72 -2.17,-3.76 -2.17,-6.14 z m 327.13,283.07 c -14.13,4.42 -29.05,6.63 -44.76,6.63 -13.99,0 -27.42,-1.82 -40.29,-5.45 -12.88,-3.63 -24.92,-8.71 -36.14,-15.24 -11.23,-6.54 -21.42,-14.43 -30.6,-23.67 -9.17,-9.24 -17.06,-19.5 -23.66,-30.79 -6.6,-11.29 -11.68,-23.37 -15.25,-36.24 -3.56,-12.87 -5.34,-26.3 -5.34,-40.29 0,-14 1.78,-27.43 5.34,-40.3 3.57,-12.87 8.65,-24.89 15.25,-36.04 6.6,-11.16 14.49,-21.32 23.66,-30.5 9.18,-9.17 19.37,-17.06 30.6,-23.66 11.22,-6.6 23.26,-11.68 36.14,-15.25 12.87,-3.56 26.3,-5.34 40.29,-5.34 15.84,0 30.92,2.27 45.25,6.83 14.32,4.55 27.69,10.99 40.1,19.31 1.45,1.05 2.74,2.17 3.86,3.36 1.12,1.19 1.68,2.71 1.68,4.56 0,1.31 -0.39,2.77 -1.18,4.35 l -19.61,33.07 c -2.37,2.9 -4.69,4.36 -6.93,4.36 -0.79,-0.13 -1.75,-0.33 -2.87,-0.6 -1.12,-0.26 -2.21,-0.79 -3.27,-1.58 -8.18,-5.94 -17.13,-10.56 -26.83,-13.86 -9.7,-3.3 -19.9,-4.95 -30.59,-4.95 -13.47,0 -25.81,2.5 -37.03,7.52 -11.23,5.02 -20.93,11.88 -29.11,20.6 -8.19,8.71 -14.56,18.91 -19.11,30.59 -4.56,11.68 -6.83,24.19 -6.83,37.53 0,13.46 2.27,26.07 6.83,37.82 4.55,11.75 10.92,21.98 19.11,30.69 8.18,8.71 17.88,15.61 29.11,20.69 11.22,5.08 23.56,7.63 37.03,7.63 10.69,0 20.79,-1.65 30.29,-4.95 9.51,-3.3 18.42,-7.92 26.74,-13.86 1.05,-0.67 2.11,-1.16 3.16,-1.49 1.06,-0.33 1.99,-0.49 2.78,-0.49 2.5,0 4.88,1.51 7.13,4.55 l 19.2,32.67 c 0.8,1.59 1.19,3.1 1.19,4.56 0,1.84 -0.53,3.43 -1.58,4.75 -1.06,1.32 -2.38,2.44 -3.96,3.37 -12.41,8.31 -25.68,14.68 -39.8,19.11 z m 102.96,-41.09 c 0,-3.31 0.86,-5.78 2.58,-7.43 1.71,-1.65 3.89,-2.47 6.53,-2.47 h 75.45 v -231.69 c 0,-2.64 0.95,-4.82 2.87,-6.53 1.91,-1.72 4.06,-2.58 6.43,-2.58 h 39.01 c 2.91,0 5.18,0.92 6.84,2.78 1.64,1.84 2.47,3.96 2.47,6.33 v 231.69 h 75.25 c 3.17,0 5.57,0.99 7.23,2.97 1.65,1.98 2.47,4.28 2.47,6.93 v 34.65 c -0.26,2.9 -1.35,5.08 -3.27,6.53 -1.91,1.46 -4.06,2.18 -6.43,2.18 H 6260.2 c -2.64,0 -4.82,-0.79 -6.53,-2.37 -1.72,-1.59 -2.58,-3.7 -2.58,-6.34 z m 636.51,38.35 v -175.89 h 38.54 v -51.25 h -38.54 v -61.91 h -60.27 v 61.91 h -140.22 l -10.25,44.69 157.44,182.45 z m -60.27,-86.51 -76.26,-89.38 h 76.26 z" /><path
         id="path22"
         style="fill:none;stroke:#ffffff;stroke-width:70;stroke-linecap:round;stroke-linejoin:miter;stroke-miterlimit:4;stroke-dasharray:none;stroke-opacity:1"
         d="M 718.957,3326 H 7201.04" /><path
         id="path24"
         style="fill:none;stroke:#ffffff;stroke-width:70;stroke-linecap:round;stroke-linejoin:miter;stroke-miterlimit:4;stroke-dasharray:none;stroke-opacity:1"
         d="M 718.957,2802.32 H 7201.04" /><path
         id="path26"
         style="fill:#ffffff;fill-opacity:1;fill-rule:nonzero;stroke:none"
         d="m 3638.62,2659.04 c 2.05,8.55 1.96,17.62 3.87,26.24 2.83,15.91 11.3,30.62 11.74,46.82 0.08,10.11 -4.52,20.13 -6.78,30.22 -3.33,14.07 -9.21,25.33 -5.69,38.47 7.52,18.99 12.19,40.62 6.2,60.53 -46.78,88.79 -102.09,173.5 -151.53,260.79 -5.51,9.24 -11.51,18.16 -18.18,26.6 -32.6,39.96 -45.99,145.81 -78.62,185.83 -4.47,5.96 -6.78,11.97 -5.39,17.94 0.99,4.67 4.1,9.31 7.93,13.86 6.81,8.04 13.86,15.89 21.29,23.34 73.8,70.14 127.4,73.18 201.8,142.69 9.5,8.89 18.94,17.81 28.44,26.72 11.81,11.81 24.74,18.82 41.88,16.24 142.37,-18.49 285.05,-36.48 427.33,-56.31 50.22,-6.99 101.26,-13.1 151.65,-20.69 11.16,-2.29 19.13,-10.25 30.14,-13.24 15.65,-3.64 38.26,-4.02 45.01,-21.27 1.47,-5.59 -1.67,-12.77 -2.09,-19.22 -0.23,-2.96 -0.25,-5.86 0,-8.85 2.39,-24.16 20.68,-33.64 2.44,-57.36 -8.51,-12.35 -8.24,-31.17 -24.21,-37.07 -11.91,-4.74 -23.38,-12.96 -35.73,-15.72 -5.83,-1.09 -12.14,-0.77 -17.05,-4.51 -4.98,-3.96 -6.28,-11.11 -8.45,-16.97 -2.72,-8.68 -6.39,-16.93 -11.23,-25.11 -4.99,-8.82 -9.63,-17.57 -13.54,-26.79 -3.14,-7.28 -5.88,-15.36 -11,-21.3 -7.03,-8.93 -18.87,-9.42 -28.94,-12.43 -8.82,-2.22 -19.98,-9.36 -22.02,-17.96 -1.64,-7.86 4.45,-15.11 6.54,-22.44 1.69,-4.9 2.07,-10.11 2.41,-15.5 0.25,-18.4 9.6,-29.14 20.52,-42.62 12.52,-14.12 11.03,-34.36 21.29,-50.18 5.2,-10.54 15.87,-18.29 27.89,-15.37 5.23,0.82 10.77,2.67 15.98,1.98 11.22,-1.38 8.66,-18.08 12.17,-25.92 7.91,-19.42 23.44,-37.32 24.22,-59.06 1.77,-16.16 -6.32,-29.51 -13.94,-43.41 -5.22,-9.66 -12.94,-17.73 -18.53,-27.06 -7.23,-10.05 -11.45,-23.45 -21.52,-31.34 -7.76,-6.14 -18.32,-7.57 -23.08,-14.5 -4.64,-7.79 -6.4,-18.01 -8.05,-26.8 -0.89,-7.3 -1.2,-14.27 -4.87,-18.28 -4.61,-4.53 -12.35,-4.16 -18.66,-4.14 -23.99,0.75 -48.17,1.65 -72.04,2.37 -3.9,0.04 -8.17,-0.07 -11.77,-1.11 -8.79,-2.35 -13.07,-11.04 -19.88,-16.87 -6.61,-5.85 -15.44,-10.16 -18.41,-19.3 -4.04,-12.54 -5.91,-26.65 -15.7,-36.45 -5.44,-6.1 -12.65,-12.01 -13.93,-16.79 -2.51,-10.14 16.75,-11.75 14.05,-21.97 -3.8,-11.31 -32.29,-2.88 -30.3,-16.47 2.57,-7.49 19.56,-16.39 3.68,-20.67 -5.76,-1.35 -12.29,-1.05 -18.23,-0.39 -11.76,1.42 -20.81,6.74 -31.72,4.47 -7.63,-1.02 -15.75,-5.07 -15.15,-13.7 -0.15,-1.73 -0.4,-3.16 -1.4,-3.94 -1.83,-1.19 -5.75,-1.38 -8.36,-1.66 -6.2,-0.44 -9,-2.89 -8.85,-9.31 -0.26,-8.3 4.62,-18.77 0.24,-26.41 -2.56,-5.21 -8.16,-6.18 -12.95,-3.26 -4.18,1.75 -8.45,5.82 -13.26,4.71 -3.2,-0.98 -5.93,-6.09 -8.73,-7.98 -5.19,-3.93 -12.45,1.13 -12.36,-8.26 -0.37,-3.66 0.41,-8.19 -0.09,-11.74 -1.28,-8.58 -7.09,-13.08 -15.8,-15.89 -4.35,-1.68 -9.76,-3.36 -11.72,-7.46 l -0.1,-0.19 c -3.53,-7.38 1.6,-14.54 1.81,-22.52 0.17,-7.82 -1.76,-16.13 -7.98,-21.77 -5.48,-4.96 -11.85,-7.91 -17.18,-5.41 -8.27,5.12 -7.34,16.43 -10.09,25.93 -1.49,6.29 -3.9,12.32 -6.03,18.42 -4.23,11.7 -7.38,23.78 -12.69,34.96 -9.98,23.22 -34.13,25.49 -39.33,-1.59 -5.65,-28.46 -6.62,-58.11 -13.44,-86.49 -1.6,-7.34 -3.44,-14.9 -7.46,-21.28 -9.72,-17.13 -30.56,-9.69 -46.76,-11.34 -24.07,-4.04 -35.55,0.09 -35.19,27.28 0.1,10.69 -1.38,21.32 -1.78,31.98 -0.8,12.42 4.35,24.91 1.7,37.21 -5.56,20.08 -9.35,82.89 -21.3,72.58" /><path
         id="path28"
         style="fill:none;stroke:#ffffff;stroke-width:10;stroke-linecap:butt;stroke-linejoin:miter;stroke-miterlimit:10;stroke-dasharray:none;stroke-opacity:1"
         d="m 3638.62,2659.04 c 2.05,8.55 1.96,17.62 3.87,26.24 2.83,15.91 11.3,30.62 11.74,46.82 0.08,10.11 -4.52,20.13 -6.78,30.22 -3.33,14.07 -9.21,25.33 -5.69,38.47 7.52,18.99 12.19,40.62 6.2,60.53 -46.78,88.79 -102.09,173.5 -151.53,260.79 -5.51,9.24 -11.51,18.16 -18.18,26.6 -32.6,39.96 -45.99,145.81 -78.62,185.83 -4.47,5.96 -6.78,11.97 -5.39,17.94 0.99,4.67 4.1,9.31 7.93,13.86 6.81,8.04 13.86,15.89 21.29,23.34 73.8,70.14 127.4,73.18 201.8,142.69 9.5,8.89 18.94,17.81 28.44,26.72 11.81,11.81 24.74,18.82 41.88,16.24 142.37,-18.49 285.05,-36.48 427.33,-56.31 50.22,-6.99 101.26,-13.1 151.65,-20.69 11.16,-2.29 19.13,-10.25 30.14,-13.24 15.65,-3.64 38.26,-4.02 45.01,-21.27 1.47,-5.59 -1.67,-12.77 -2.09,-19.22 -0.23,-2.96 -0.25,-5.86 0,-8.85 2.39,-24.16 20.68,-33.64 2.44,-57.36 -8.51,-12.35 -8.24,-31.17 -24.21,-37.07 -11.91,-4.74 -23.38,-12.96 -35.73,-15.72 -5.83,-1.09 -12.14,-0.77 -17.05,-4.51 -4.98,-3.96 -6.28,-11.11 -8.45,-16.97 -2.72,-8.68 -6.39,-16.93 -11.23,-25.11 -4.99,-8.82 -9.63,-17.57 -13.54,-26.79 -3.14,-7.28 -5.88,-15.36 -11,-21.3 -7.03,-8.93 -18.87,-9.42 -28.94,-12.43 -8.82,-2.22 -19.98,-9.36 -22.02,-17.96 -1.64,-7.86 4.45,-15.11 6.54,-22.44 1.69,-4.9 2.07,-10.11 2.41,-15.5 0.25,-18.4 9.6,-29.14 20.52,-42.62 12.52,-14.12 11.03,-34.36 21.29,-50.18 5.2,-10.54 15.87,-18.29 27.89,-15.37 5.23,0.82 10.77,2.67 15.98,1.98 11.22,-1.38 8.66,-18.08 12.17,-25.92 7.91,-19.42 23.44,-37.32 24.22,-59.06 1.77,-16.16 -6.32,-29.51 -13.94,-43.41 -5.22,-9.66 -12.94,-17.73 -18.53,-27.06 -7.23,-10.05 -11.45,-23.45 -21.52,-31.34 -7.76,-6.14 -18.32,-7.57 -23.08,-14.5 -4.64,-7.79 -6.4,-18.01 -8.05,-26.8 -0.89,-7.3 -1.2,-14.27 -4.87,-18.28 -4.61,-4.53 -12.35,-4.16 -18.66,-4.14 -23.99,0.75 -48.17,1.65 -72.04,2.37 -3.9,0.04 -8.17,-0.07 -11.77,-1.11 -8.79,-2.35 -13.07,-11.04 -19.88,-16.87 -6.61,-5.85 -15.44,-10.16 -18.41,-19.3 -4.04,-12.54 -5.91,-26.65 -15.7,-36.45 -5.44,-6.1 -12.65,-12.01 -13.93,-16.79 -2.51,-10.14 16.75,-11.75 14.05,-21.97 -3.8,-11.31 -32.29,-2.88 -30.3,-16.47 2.57,-7.49 19.56,-16.39 3.68,-20.67 -5.76,-1.35 -12.29,-1.05 -18.23,-0.39 -11.76,1.42 -20.81,6.74 -31.72,4.47 -7.63,-1.02 -15.75,-5.07 -15.15,-13.7 -0.15,-1.73 -0.4,-3.16 -1.4,-3.94 -1.83,-1.19 -5.75,-1.38 -8.36,-1.66 -6.2,-0.44 -9,-2.89 -8.85,-9.31 -0.26,-8.3 4.62,-18.77 0.24,-26.41 -2.56,-5.21 -8.16,-6.18 -12.95,-3.26 -4.18,1.75 -8.45,5.82 -13.26,4.71 -3.2,-0.98 -5.93,-6.09 -8.73,-7.98 -5.19,-3.93 -12.45,1.13 -12.36,-8.26 -0.37,-3.66 0.41,-8.19 -0.09,-11.74 -1.28,-8.58 -7.09,-13.08 -15.8,-15.89 -4.35,-1.68 -9.76,-3.36 -11.72,-7.46 l -0.1,-0.19 c -3.53,-7.38 1.6,-14.54 1.81,-22.52 0.17,-7.82 -1.76,-16.13 -7.98,-21.77 -5.48,-4.96 -11.85,-7.91 -17.18,-5.41 -8.27,5.12 -7.34,16.43 -10.09,25.93 -1.49,6.29 -3.9,12.32 -6.03,18.42 -4.23,11.7 -7.38,23.78 -12.69,34.96 -9.98,23.22 -34.13,25.49 -39.33,-1.59 -5.65,-28.46 -6.62,-58.11 -13.44,-86.49 -1.6,-7.34 -3.44,-14.9 -7.46,-21.28 -9.72,-17.13 -30.56,-9.69 -46.76,-11.34 -24.07,-4.04 -35.55,0.09 -35.19,27.28 0.1,10.69 -1.38,21.32 -1.78,31.98 -0.8,12.42 4.35,24.91 1.7,37.21 -5.56,20.08 -9.35,82.89 -21.3,72.58" /><path
         id="path30"
         style="fill:#ffffff;fill-opacity:1;fill-rule:nonzero;stroke:none"
         d="m 3817.95,2656.06 c -3.52,-7.37 1.61,-14.53 1.82,-22.52 0.17,-7.81 -1.77,-16.12 -7.98,-21.76 -5.48,-4.96 -11.85,-7.91 -17.18,-5.41 -8.27,5.12 -7.34,16.43 -10.09,25.93 -1.49,6.28 -3.9,12.32 -6.03,18.42 -4.23,11.7 -7.39,23.78 -12.7,34.96 -9.97,23.22 -34.13,25.49 -39.33,-1.59 -5.65,-28.46 -6.61,-58.11 -13.43,-86.49 -1.6,-7.34 -3.45,-14.91 -7.46,-21.28 -9.72,-17.13 -30.56,-9.69 -46.77,-11.34 -24.06,-4.04 -35.54,0.09 -35.19,27.27 0.11,10.7 -1.37,21.33 -1.78,31.99 -0.79,12.42 4.36,24.91 1.71,37.21 -5.56,20.08 -27.04,13.83 -38.98,3.52 -12.2,-9.63 -23.73,-21.22 -38.98,-25.62 -3.61,-0.91 -6.76,-1.46 -10.24,-0.61 -1.09,0.49 -2.06,0.66 -2.58,1.82 -0.68,2.35 0.61,4.32 2.03,6.65 1.88,2.91 4.1,5.77 6.1,8.68 5.48,7.63 8.13,17.59 14.08,25.19 13.8,16.7 12.56,24.62 14.22,44.62 1.61,11.24 7.19,20.57 9.91,31.78 2.05,8.56 1.95,17.63 3.86,26.25 2.83,15.91 11.31,30.62 11.75,46.82 0.07,10.11 -4.52,20.13 -6.79,30.22 -3.33,14.07 -9.2,25.32 -5.68,38.47 7.52,18.99 12.19,40.62 6.19,60.53 -46.77,88.79 -102.08,173.5 -151.52,260.79 -5.52,9.23 -11.51,18.16 -18.19,26.6 -32.6,39.96 -66.45,78.87 -99.08,118.89 -4.47,5.96 -6.77,11.97 -5.38,17.94 0.98,4.67 4.1,9.31 7.92,13.86 6.82,8.04 13.86,15.89 21.29,23.34 73.8,70.14 147.87,140.12 222.27,209.63 9.5,8.89 18.93,17.81 28.44,26.72 11.81,11.81 24.73,18.82 41.87,16.24 142.38,-18.49 285.06,-36.48 427.33,-56.31 50.23,-6.99 101.27,-13.1 151.66,-20.69 11.15,-2.29 19.13,-10.25 30.14,-13.24 15.65,-3.64 38.26,-4.02 45.01,-21.27 1.46,-5.59 -1.67,-12.77 -2.09,-19.22 -0.23,-2.96 -0.25,-5.86 0,-8.85 2.38,-24.16 20.68,-33.64 2.43,-57.36 -8.5,-12.35 -8.23,-31.17 -24.2,-37.07 -11.91,-4.74 -23.38,-12.96 -35.73,-15.72 -5.83,-1.09 -12.14,-0.77 -17.06,-4.51 -4.97,-3.96 -6.28,-11.11 -8.44,-16.97 -2.73,-8.68 -6.39,-16.93 -11.23,-25.11 -4.99,-8.82 -9.64,-17.57 -13.55,-26.79 -3.13,-7.28 -5.88,-15.36 -10.99,-21.3 -7.03,-8.93 -18.88,-9.42 -28.95,-12.43 -8.81,-2.22 -19.98,-9.36 -22.01,-17.96 -1.64,-7.86 4.45,-15.11 6.54,-22.44 1.69,-4.9 2.07,-10.11 2.41,-15.51 0.25,-18.39 9.6,-29.13 20.52,-42.61 12.51,-14.12 11.03,-34.36 21.29,-50.18 5.19,-10.54 15.87,-18.29 27.89,-15.37 5.23,0.82 10.76,2.67 15.98,1.98 11.22,-1.38 8.66,-18.08 12.16,-25.92 7.92,-19.42 23.44,-37.32 24.23,-59.06 1.77,-16.16 -6.32,-29.51 -13.94,-43.41 -5.23,-9.66 -12.94,-17.73 -18.54,-27.06 -7.23,-10.05 -11.44,-23.45 -21.52,-31.34 -7.75,-6.14 -18.31,-7.57 -23.07,-14.5 -4.64,-7.79 -6.4,-18.01 -8.05,-26.8 -0.9,-7.3 -1.21,-14.27 -4.88,-18.28 -4.61,-4.53 -12.34,-4.16 -18.66,-4.14 -23.98,0.75 -48.16,1.65 -72.03,2.37 -3.91,0.04 -8.18,-0.08 -11.78,-1.12 -8.78,-2.34 -13.06,-11.03 -19.88,-16.86 -6.6,-5.85 -15.44,-10.16 -18.4,-19.3 -4.04,-12.54 -5.92,-26.65 -15.71,-36.45 -5.43,-6.1 -12.65,-12.02 -13.92,-16.79 -2.51,-10.14 16.75,-11.75 14.05,-21.97 -3.81,-11.31 -32.29,-2.88 -30.3,-16.47 2.57,-7.49 19.56,-16.39 3.68,-20.67 -5.76,-1.35 -12.29,-1.05 -18.24,-0.39 -11.75,1.42 -20.8,6.74 -31.71,4.46 -7.63,-1.01 -15.75,-5.06 -15.16,-13.69 -0.15,-1.73 -0.39,-3.16 -1.4,-3.94 -1.82,-1.19 -5.74,-1.38 -8.35,-1.66 -6.21,-0.44 -9,-2.9 -8.85,-9.31 -0.27,-8.3 4.62,-18.77 0.24,-26.41 -2.57,-5.21 -8.17,-6.18 -12.95,-3.26 -4.18,1.74 -8.45,5.82 -13.27,4.71 -3.19,-0.98 -5.92,-6.09 -8.72,-7.98 -5.19,-3.93 -12.45,1.13 -12.37,-8.26 -0.36,-3.66 0.41,-8.19 -0.08,-11.74 -1.28,-8.59 -7.09,-13.09 -15.81,-15.9 -4.34,-1.67 -9.76,-3.35 -11.72,-7.45 l -0.1,-0.2" /><path
         id="path32"
         style="fill:none;stroke:#ffffff;stroke-width:10;stroke-linecap:butt;stroke-linejoin:miter;stroke-miterlimit:10;stroke-dasharray:none;stroke-opacity:1"
         d="m 3817.95,2656.06 c -3.52,-7.37 1.61,-14.53 1.82,-22.52 0.17,-7.81 -1.77,-16.12 -7.98,-21.76 -5.48,-4.96 -11.85,-7.91 -17.18,-5.41 -8.27,5.12 -7.34,16.43 -10.09,25.93 -1.49,6.28 -3.9,12.32 -6.03,18.42 -4.23,11.7 -7.39,23.78 -12.7,34.96 -9.97,23.22 -34.13,25.49 -39.33,-1.59 -5.65,-28.46 -6.61,-58.11 -13.43,-86.49 -1.6,-7.34 -3.45,-14.91 -7.46,-21.28 -9.72,-17.13 -30.56,-9.69 -46.77,-11.34 -24.06,-4.04 -35.54,0.09 -35.19,27.27 0.11,10.7 -1.37,21.33 -1.78,31.99 -0.79,12.42 4.36,24.91 1.71,37.21 -5.56,20.08 -27.04,13.83 -38.98,3.52 -12.2,-9.63 -23.73,-21.22 -38.98,-25.62 -3.61,-0.91 -6.76,-1.46 -10.24,-0.61 -1.09,0.49 -2.06,0.66 -2.58,1.82 -0.68,2.35 0.61,4.32 2.03,6.65 1.88,2.91 4.1,5.77 6.1,8.68 5.48,7.63 8.13,17.59 14.08,25.19 13.8,16.7 12.56,24.62 14.22,44.62 1.61,11.24 7.19,20.57 9.91,31.78 2.05,8.56 1.95,17.63 3.86,26.25 2.83,15.91 11.31,30.62 11.75,46.82 0.07,10.11 -4.52,20.13 -6.79,30.22 -3.33,14.07 -9.2,25.32 -5.68,38.47 7.52,18.99 12.19,40.62 6.19,60.53 -46.77,88.79 -102.08,173.5 -151.52,260.79 -5.52,9.23 -11.51,18.16 -18.19,26.6 -32.6,39.96 -66.45,78.87 -99.08,118.89 -4.47,5.96 -6.77,11.97 -5.38,17.94 0.98,4.67 4.1,9.31 7.92,13.86 6.82,8.04 13.86,15.89 21.29,23.34 73.8,70.14 147.87,140.12 222.27,209.63 9.5,8.89 18.93,17.81 28.44,26.72 11.81,11.81 24.73,18.82 41.87,16.24 142.38,-18.49 285.06,-36.48 427.33,-56.31 50.23,-6.99 101.27,-13.1 151.66,-20.69 11.15,-2.29 19.13,-10.25 30.14,-13.24 15.65,-3.64 38.26,-4.02 45.01,-21.27 1.46,-5.59 -1.67,-12.77 -2.09,-19.22 -0.23,-2.96 -0.25,-5.86 0,-8.85 2.38,-24.16 20.68,-33.64 2.43,-57.36 -8.5,-12.35 -8.23,-31.17 -24.2,-37.07 -11.91,-4.74 -23.38,-12.96 -35.73,-15.72 -5.83,-1.09 -12.14,-0.77 -17.06,-4.51 -4.97,-3.96 -6.28,-11.11 -8.44,-16.97 -2.73,-8.68 -6.39,-16.93 -11.23,-25.11 -4.99,-8.82 -9.64,-17.57 -13.55,-26.79 -3.13,-7.28 -5.88,-15.36 -10.99,-21.3 -7.03,-8.93 -18.88,-9.42 -28.95,-12.43 -8.81,-2.22 -19.98,-9.36 -22.01,-17.96 -1.64,-7.86 4.45,-15.11 6.54,-22.44 1.69,-4.9 2.07,-10.11 2.41,-15.51 0.25,-18.39 9.6,-29.13 20.52,-42.61 12.51,-14.12 11.03,-34.36 21.29,-50.18 5.19,-10.54 15.87,-18.29 27.89,-15.37 5.23,0.82 10.76,2.67 15.98,1.98 11.22,-1.38 8.66,-18.08 12.16,-25.92 7.92,-19.42 23.44,-37.32 24.23,-59.06 1.77,-16.16 -6.32,-29.51 -13.94,-43.41 -5.23,-9.66 -12.94,-17.73 -18.54,-27.06 -7.23,-10.05 -11.44,-23.45 -21.52,-31.34 -7.75,-6.14 -18.31,-7.57 -23.07,-14.5 -4.64,-7.79 -6.4,-18.01 -8.05,-26.8 -0.9,-7.3 -1.21,-14.27 -4.88,-18.28 -4.61,-4.53 -12.34,-4.16 -18.66,-4.14 -23.98,0.75 -48.16,1.65 -72.03,2.37 -3.91,0.04 -8.18,-0.08 -11.78,-1.12 -8.78,-2.34 -13.06,-11.03 -19.88,-16.86 -6.6,-5.85 -15.44,-10.16 -18.4,-19.3 -4.04,-12.54 -5.92,-26.65 -15.71,-36.45 -5.43,-6.1 -12.65,-12.02 -13.92,-16.79 -2.51,-10.14 16.75,-11.75 14.05,-21.97 -3.81,-11.31 -32.29,-2.88 -30.3,-16.47 2.57,-7.49 19.56,-16.39 3.68,-20.67 -5.76,-1.35 -12.29,-1.05 -18.24,-0.39 -11.75,1.42 -20.8,6.74 -31.71,4.46 -7.63,-1.01 -15.75,-5.06 -15.16,-13.69 -0.15,-1.73 -0.39,-3.16 -1.4,-3.94 -1.82,-1.19 -5.74,-1.38 -8.35,-1.66 -6.21,-0.44 -9,-2.9 -8.85,-9.31 -0.27,-8.3 4.62,-18.77 0.24,-26.41 -2.57,-5.21 -8.17,-6.18 -12.95,-3.26 -4.18,1.74 -8.45,5.82 -13.27,4.71 -3.19,-0.98 -5.92,-6.09 -8.72,-7.98 -5.19,-3.93 -12.45,1.13 -12.37,-8.26 -0.36,-3.66 0.41,-8.19 -0.08,-11.74 -1.28,-8.59 -7.09,-13.09 -15.81,-15.9 -4.34,-1.67 -9.76,-3.35 -11.72,-7.45 z" /></g></g></svg>