<svg xmlns="http://www.w3.org/2000/svg" xmlns:xlink="http://www.w3.org/1999/xlink" width="1080" zoomAndPan="magnify" viewBox="0 0 810 809.999993" height="1080" preserveAspectRatio="xMidYMid meet" version="1.0"><defs><g/><clipPath id="d95d368294"><path d="M 55.105469 29.878906 L 780.355469 29.878906 L 780.355469 755.128906 L 55.105469 755.128906 Z M 55.105469 29.878906 " clip-rule="nonzero"/></clipPath></defs><rect x="-81" width="972" fill="transparent" y="-80.999999" height="971.999992" fill-opacity="1"/><rect x="-81" width="972" fill="transparent" y="-80.999999" height="971.999992" fill-opacity="1"/><g clip-path="url(#d95d368294)"><path stroke-linecap="butt" transform="matrix(1.169758, 0, 0, 1.169758, 55.106559, 29.877069)" fill="none" stroke-linejoin="miter" d="M 578.998357 310.001582 C 578.998357 314.402867 578.891497 318.800811 578.674438 323.198756 C 578.460719 327.596701 578.1368 331.984628 577.706022 336.365876 C 577.271905 340.747124 576.734267 345.115014 576.089769 349.469548 C 575.441932 353.824081 574.690575 358.161917 573.832358 362.479717 C 572.970801 366.797517 572.009064 371.091941 570.937128 375.36299 C 569.868531 379.6307 568.696413 383.875034 567.417436 388.085974 C 566.138459 392.300254 564.759301 396.477801 563.276622 400.621954 C 561.790605 404.769446 560.207745 408.873527 558.524705 412.940874 C 556.838325 417.008222 555.055104 421.032158 553.171701 425.012682 C 551.291638 428.993206 549.311394 432.92364 547.237648 436.807322 C 545.160563 440.687665 542.993314 444.517918 540.729224 448.294741 C 538.465134 452.068224 536.110881 455.788278 533.666465 459.448223 C 531.21871 463.108168 528.684131 466.708004 526.062729 470.244393 C 523.441327 473.777442 520.733101 477.247043 517.941391 480.653196 C 515.146342 484.05601 512.271148 487.388697 509.315809 490.647918 C 506.360471 493.910478 503.324987 497.099573 500.212698 500.211862 C 497.09707 503.324151 493.911315 506.359634 490.648754 509.314973 C 487.386194 512.273651 484.053507 515.145506 480.650693 517.940555 C 477.247879 520.732265 473.778278 523.440491 470.241889 526.061893 C 466.705501 528.686634 463.109004 531.217874 459.449059 533.665629 C 455.789114 536.110045 452.06906 538.464298 448.292238 540.728388 C 444.518754 542.992478 440.688502 545.163066 436.804819 547.236812 C 432.924476 549.310558 428.990703 551.290802 425.013518 553.174204 C 421.032994 555.054267 417.009058 556.837489 412.941711 558.523868 C 408.874363 560.206909 404.766943 561.793108 400.62279 563.275786 C 396.478637 564.758464 392.297751 566.137623 388.086811 567.4166 C 383.872531 568.695577 379.631536 569.867694 375.360487 570.939631 C 371.092778 572.008228 366.798353 572.973304 362.480553 573.831522 C 358.162753 574.689739 353.824917 575.441096 349.470384 576.088933 C 345.115851 576.73343 340.74796 577.274408 336.366712 577.705186 C 331.985464 578.135964 327.597537 578.459883 323.199593 578.676941 C 318.801648 578.890661 314.403703 579.00086 309.999079 579.00086 C 305.597795 579.00086 301.196511 578.890661 296.801905 578.676941 C 292.403961 578.459883 288.016034 578.135964 283.634786 577.705186 C 279.253538 577.274408 274.885647 576.73343 270.531114 576.088933 C 266.173242 575.441096 261.838745 574.689739 257.520945 573.831522 C 253.203145 572.973304 248.90872 572.008228 244.637671 570.939631 C 240.366622 569.867694 236.125628 568.695577 231.914687 567.4166 C 227.700408 566.137623 223.522861 564.758464 219.375369 563.275786 C 215.231216 561.793108 211.123796 560.206909 207.059787 558.523868 C 202.99244 556.837489 198.968504 555.054267 194.98798 553.174204 C 191.007456 551.290802 187.077022 549.310558 183.19334 547.236812 C 179.312996 545.163066 175.482744 542.992478 171.705921 540.728388 C 167.929098 538.464298 164.212384 536.110045 160.552439 533.665629 C 156.892494 531.217874 153.292658 528.686634 149.756269 526.061893 C 146.219881 523.440491 142.75028 520.732265 139.347466 517.940555 C 135.944652 515.145506 132.611965 512.273651 129.349404 509.314973 C 126.090183 506.359634 122.901089 503.324151 119.7888 500.211862 C 116.676511 497.099573 113.641027 493.910478 110.685689 490.647918 C 107.72701 487.388697 104.851816 484.05601 102.060107 480.653196 C 99.268397 477.247043 96.560171 473.777442 93.938769 470.244393 C 91.314027 466.708004 88.779449 463.108168 86.335033 459.448223 C 83.887278 455.788278 81.533025 452.068224 79.272274 448.294741 C 77.008184 444.517918 74.837596 440.687665 72.76385 436.807322 C 70.686764 432.92364 68.70986 428.993206 66.826457 425.012682 C 64.943055 421.032158 63.159834 417.008222 61.476793 412.940874 C 59.790414 408.873527 58.207554 404.769446 56.724876 400.621954 C 55.242197 396.477801 53.8597 392.300254 52.584062 388.085974 C 51.305085 383.875034 50.129628 379.6307 49.061031 375.36299 C 47.992434 371.091941 47.027357 366.797517 46.16914 362.479717 C 45.310923 358.161917 44.556227 353.824081 43.911729 349.469548 C 43.263892 345.115014 42.726254 340.747124 42.295476 336.365876 C 41.864698 331.984628 41.540779 327.596701 41.32372 323.198756 C 41.106662 318.800811 40.999802 314.402867 40.999802 310.001582 C 40.999802 305.596959 41.106662 301.199014 41.32372 296.801069 C 41.540779 292.403124 41.864698 288.015198 42.295476 283.63395 C 42.726254 279.252702 43.263892 274.884811 43.911729 270.530278 C 44.556227 266.175745 45.310923 261.837909 46.16914 257.520109 C 47.027357 253.202309 47.992434 248.907884 49.061031 244.636835 C 50.129628 240.369126 51.305085 236.124791 52.584062 231.913851 C 53.8597 227.699571 55.242197 223.522025 56.724876 219.377872 C 58.207554 215.230379 59.790414 211.126299 61.476793 207.058951 C 63.159834 202.991603 64.943055 198.967668 66.826457 194.987143 C 68.70986 191.006619 70.686764 187.076186 72.76385 183.195843 C 74.837596 179.31216 77.008184 175.481907 79.272274 171.705085 C 81.533025 167.931601 83.887278 164.211548 86.335033 160.551603 C 88.779449 156.891658 91.314027 153.291821 93.938769 149.755433 C 96.560171 146.222384 99.268397 142.752783 102.060107 139.34663 C 104.851816 135.943816 107.72701 132.611129 110.685689 129.351907 C 113.641027 126.089347 116.676511 122.900253 119.7888 119.787964 C 122.901089 116.675675 126.090183 113.640191 129.349404 110.684852 C 132.611965 107.726174 135.944652 104.85432 139.347466 102.05927 C 142.75028 99.26756 146.219881 96.559335 149.756269 93.937933 C 153.292658 91.313191 156.892494 88.781952 160.552439 86.334196 C 164.212384 83.889781 167.929098 81.535528 171.705921 79.271438 C 175.482744 77.007348 179.312996 74.840099 183.19334 72.763014 C 187.077022 70.689267 191.007456 68.709023 194.98798 66.825621 C 198.968504 64.945558 202.99244 63.162337 207.059787 61.475957 C 211.123796 59.792917 215.231216 58.206718 219.375369 56.724039 C 223.522861 55.241361 227.700408 53.862203 231.914687 52.583226 C 236.125628 51.304249 240.366622 50.132131 244.637671 49.060195 C 248.90872 47.991598 253.203145 47.026521 257.520945 46.168304 C 261.838745 45.310087 266.173242 44.55873 270.531114 43.910893 C 274.885647 43.266395 279.253538 42.725418 283.634786 42.29464 C 288.016034 41.863861 292.403961 41.539943 296.801905 41.322884 C 301.196511 41.109165 305.597795 40.998966 309.999079 40.998966 C 314.403703 40.998966 318.801648 41.109165 323.199593 41.322884 C 327.597537 41.539943 331.985464 41.863861 336.366712 42.29464 C 340.74796 42.725418 345.115851 43.266395 349.470384 43.910893 C 353.824917 44.55873 358.162753 45.310087 362.480553 46.168304 C 366.798353 47.026521 371.092778 47.991598 375.360487 49.060195 C 379.631536 50.132131 383.872531 51.304249 388.086811 52.583226 C 392.297751 53.862203 396.478637 55.241361 400.62279 56.724039 C 404.766943 58.206718 408.874363 59.792917 412.941711 61.475957 C 417.009058 63.162337 421.032994 64.945558 425.013518 66.825621 C 428.990703 68.709023 432.924476 70.689267 436.804819 72.763014 C 440.688502 74.840099 444.518754 77.007348 448.292238 79.271438 C 452.06906 81.535528 455.789114 83.889781 459.449059 86.334196 C 463.109004 88.781952 466.705501 91.313191 470.241889 93.937933 C 473.778278 96.559335 477.247879 99.26756 480.650693 102.05927 C 484.053507 104.85432 487.386194 107.726174 490.648754 110.684852 C 493.911315 113.640191 497.09707 116.675675 500.212698 119.787964 C 503.324987 122.900253 506.360471 126.089347 509.315809 129.351907 C 512.271148 132.611129 515.146342 135.943816 517.941391 139.34663 C 520.733101 142.752783 523.441327 146.222384 526.062729 149.755433 C 528.684131 153.291821 531.21871 156.891658 533.666465 160.551603 C 536.110881 164.211548 538.465134 167.931601 540.729224 171.705085 C 542.993314 175.481907 545.160563 179.31216 547.237648 183.195843 C 549.311394 187.076186 551.291638 191.006619 553.171701 194.987143 C 555.055104 198.967668 556.838325 202.991603 558.524705 207.058951 C 560.207745 211.126299 561.790605 215.230379 563.276622 219.377872 C 564.759301 223.522025 566.138459 227.699571 567.417436 231.913851 C 568.696413 236.124791 569.868531 240.369126 570.937128 244.636835 C 572.009064 248.907884 572.970801 253.202309 573.832358 257.520109 C 574.690575 261.837909 575.441932 266.175745 576.089769 270.530278 C 576.734267 274.884811 577.271905 279.252702 577.706022 283.63395 C 578.1368 288.015198 578.460719 292.403124 578.674438 296.801069 C 578.891497 301.199014 578.998357 305.596959 578.998357 310.001582 Z M 578.998357 310.001582 " stroke="#ffffff" stroke-width="40" stroke-opacity="1" stroke-miterlimit="4"/><path stroke-linecap="butt" transform="matrix(1.169758, 0, 0, 1.169758, 55.106559, 29.877069)" fill="none" stroke-linejoin="miter" d="M 112.999869 492.998832 L 311.000889 81.001229 L 436.000032 337.000355 L 187.998687 337.000355 L 436.000032 337.000355 L 512.99913 492.998832 " stroke="#ffffff" stroke-width="40" stroke-opacity="1" stroke-miterlimit="4"/></g><g fill="#ffffff" fill-opacity="1"><g transform="translate(148.069479, 412.963065)"><g><path d="M 20.699219 -119.992188 C 21 -119.992188 21.300781 -119.894531 21.597656 -119.695312 C 21.898438 -119.492188 22.199219 -119.394531 22.5 -119.394531 C 22.800781 -119.394531 23.097656 -119.492188 23.398438 -119.695312 C 23.699219 -119.894531 23.949219 -119.992188 24.148438 -119.992188 C 24.046875 -119.59375 24.449219 -119.394531 25.347656 -119.394531 C 26.347656 -119.195312 26.648438 -119.394531 26.25 -119.992188 C 26.546875 -119.894531 26.75 -119.644531 26.847656 -119.242188 C 28.148438 -119.34375 29.546875 -119.34375 31.046875 -119.242188 C 31.648438 -118.242188 32.597656 -117.09375 33.898438 -115.792969 C 33.898438 -115.695312 33.773438 -115.496094 33.523438 -115.195312 C 33.273438 -114.894531 33.148438 -114.59375 33.148438 -114.292969 C 33.148438 -113.996094 33.273438 -113.769531 33.523438 -113.621094 C 33.773438 -113.46875 33.898438 -113.246094 33.898438 -112.945312 C 33.898438 -112.644531 33.773438 -112.394531 33.523438 -112.195312 C 33.273438 -111.996094 33.148438 -111.746094 33.148438 -111.445312 C 33.148438 -111.144531 33.273438 -110.917969 33.523438 -110.769531 C 33.773438 -110.621094 33.898438 -110.394531 33.898438 -110.09375 C 33.898438 -109.792969 33.773438 -109.570312 33.523438 -109.417969 C 33.273438 -109.269531 33.148438 -109.042969 33.148438 -108.746094 C 33.046875 -107.644531 33.296875 -107.292969 33.898438 -107.695312 C 33.398438 -106.996094 33.148438 -106.394531 33.148438 -105.894531 C 33.046875 -104.894531 33.296875 -104.59375 33.898438 -104.996094 C 33.898438 -104.894531 33.722656 -104.519531 33.375 -103.871094 C 33.023438 -103.21875 32.847656 -102.695312 32.847656 -102.292969 C 32.847656 -101.996094 32.921875 -101.570312 33.074219 -101.019531 C 33.222656 -100.46875 33.296875 -100.046875 33.296875 -99.746094 C 33.296875 -99.445312 33.449219 -99.445312 33.75 -99.746094 C 33.847656 -99.445312 33.773438 -99.121094 33.523438 -98.769531 C 33.273438 -98.421875 33.148438 -98.09375 33.148438 -97.796875 C 33.148438 -97.496094 33.273438 -97.195312 33.523438 -96.894531 C 33.773438 -96.59375 33.898438 -96.296875 33.898438 -95.996094 C 33.898438 -95.695312 33.773438 -95.46875 33.523438 -95.320312 C 33.273438 -95.171875 33.148438 -94.945312 33.148438 -94.644531 C 33.148438 -93.945312 33.347656 -93.746094 33.75 -94.046875 C 33.847656 -93.746094 33.773438 -93.371094 33.523438 -92.921875 C 33.273438 -92.46875 33.148438 -92.09375 33.148438 -91.796875 C 33.148438 -91.496094 33.273438 -91.269531 33.523438 -91.121094 C 33.773438 -90.96875 33.898438 -90.746094 33.898438 -90.445312 C 33.898438 -90.144531 33.773438 -89.96875 33.523438 -89.921875 C 33.273438 -89.871094 33.148438 -89.695312 33.148438 -89.394531 C 33.148438 -89.09375 33.273438 -88.894531 33.523438 -88.796875 C 33.773438 -88.695312 33.898438 -88.496094 33.898438 -88.195312 C 33.898438 -87.894531 33.773438 -87.621094 33.523438 -87.371094 C 33.273438 -87.121094 33.148438 -86.84375 33.148438 -86.546875 C 33.148438 -86.246094 33.273438 -85.945312 33.523438 -85.644531 C 33.773438 -85.347656 33.898438 -85.046875 33.898438 -84.746094 C 33.898438 -84.546875 33.699219 -84.195312 33.296875 -83.695312 C 33.296875 -82.996094 33.222656 -81.796875 33.074219 -80.097656 C 32.921875 -78.394531 32.847656 -77.394531 32.847656 -77.097656 C 32.847656 -75.195312 33.199219 -73.894531 33.898438 -73.195312 C 33.398438 -73.097656 33.148438 -72.746094 33.148438 -72.144531 C 33.148438 -71.546875 33.347656 -71.394531 33.75 -71.695312 C 33.847656 -71.296875 33.773438 -70.871094 33.523438 -70.421875 C 33.273438 -69.972656 33.148438 -69.597656 33.148438 -69.296875 C 33.148438 -68.695312 33.347656 -68.546875 33.75 -68.847656 C 33.847656 -68.546875 33.773438 -68.195312 33.523438 -67.796875 C 33.273438 -67.398438 33.148438 -67.046875 33.148438 -66.746094 C 33.148438 -66.445312 33.324219 -66.171875 33.671875 -65.921875 C 34.023438 -65.671875 34.199219 -65.398438 34.199219 -65.097656 C 34.199219 -64.796875 34.148438 -63.421875 34.046875 -60.972656 C 33.949219 -58.523438 33.898438 -57.148438 33.898438 -56.847656 C 33.898438 -56.546875 33.773438 -56.320312 33.523438 -56.171875 C 33.273438 -56.023438 33.148438 -55.796875 33.148438 -55.496094 C 33.148438 -55.195312 33.273438 -54.921875 33.523438 -54.671875 C 33.773438 -54.421875 33.898438 -54.148438 33.898438 -53.847656 C 33.898438 -53.546875 33.648438 -53.199219 33.148438 -52.796875 C 33.25 -52.296875 33.648438 -51.996094 34.347656 -51.898438 C 34.546875 -51.597656 34.648438 -50.996094 34.648438 -50.097656 C 34.648438 -48.597656 34.597656 -47.996094 34.5 -48.296875 C 33.898438 -47.199219 33.597656 -46.746094 33.597656 -46.949219 C 33.597656 -46.648438 33.773438 -46.398438 34.125 -46.199219 C 34.472656 -45.996094 34.648438 -45.746094 34.648438 -45.449219 C 34.648438 -45.148438 34.472656 -44.921875 34.125 -44.773438 C 33.773438 -44.621094 33.597656 -44.398438 33.597656 -44.097656 C 33.597656 -43.796875 33.773438 -43.546875 34.125 -43.347656 C 34.472656 -43.148438 34.648438 -42.898438 34.648438 -42.597656 C 34.648438 -42.398438 34.472656 -42.222656 34.125 -42.074219 C 33.773438 -41.921875 33.597656 -41.699219 33.597656 -41.398438 C 33.597656 -40.796875 34.148438 -39.796875 35.25 -38.398438 C 34.847656 -38.296875 34.449219 -38.5 34.046875 -39 L 33.597656 -38.398438 C 34 -38.097656 34.199219 -37.699219 34.199219 -37.199219 C 34.199219 -36.898438 34.023438 -36.648438 33.671875 -36.449219 C 33.324219 -36.25 33.148438 -36 33.148438 -35.699219 C 33.148438 -35.398438 33.324219 -35.148438 33.671875 -34.949219 C 34.023438 -34.75 34.199219 -34.5 34.199219 -34.199219 C 34.199219 -33.898438 34.023438 -33.699219 33.671875 -33.597656 C 33.324219 -33.5 33.148438 -33.296875 33.148438 -33 C 33.148438 -32.699219 33.324219 -32.421875 33.671875 -32.171875 C 34.023438 -31.921875 34.199219 -31.699219 34.199219 -31.5 C 34.199219 -31.296875 33.847656 -30.949219 33.148438 -30.449219 C 34.148438 -29.546875 34.648438 -28.546875 34.648438 -27.449219 C 34.648438 -27.148438 34.523438 -26.671875 34.273438 -26.023438 C 34.023438 -25.375 33.898438 -24.898438 33.898438 -24.597656 C 33.898438 -24.296875 34.125 -23.773438 34.574219 -23.023438 C 35.023438 -22.273438 35.25 -21.75 35.25 -21.449219 C 35.25 -21.148438 35.148438 -20.949219 34.949219 -20.847656 C 34.75 -20.75 34.648438 -20.550781 34.648438 -20.25 C 34.648438 -19.550781 34.847656 -19.347656 35.25 -19.648438 C 35.25 -19.347656 35.148438 -18.972656 34.949219 -18.523438 C 34.75 -18.074219 34.648438 -17.699219 34.648438 -17.398438 C 34.648438 -17.097656 34.75 -16.847656 34.949219 -16.648438 C 35.148438 -16.449219 35.25 -16.25 35.25 -16.050781 C 35.25 -15.75 35.148438 -15.5 34.949219 -15.300781 C 34.75 -15.097656 34.648438 -14.847656 34.648438 -14.550781 C 34.648438 -14.25 34.75 -14.023438 34.949219 -13.875 C 35.148438 -13.722656 35.25 -13.5 35.25 -13.199219 C 35.25 -12.898438 35.148438 -12.648438 34.949219 -12.449219 C 34.75 -12.25 34.648438 -12 34.648438 -11.699219 C 34.449219 -10.699219 34.648438 -10.398438 35.25 -10.800781 C 34.847656 -10.097656 34.648438 -9.550781 34.648438 -9.148438 C 34.648438 -8.847656 34.75 -8.550781 34.949219 -8.25 C 35.148438 -7.949219 35.25 -7.648438 35.25 -7.351562 C 35.25 -7.050781 35.148438 -6.851562 34.949219 -6.75 C 34.75 -6.648438 34.648438 -6.449219 34.648438 -6.148438 C 34.648438 -5.851562 34.75 -5.675781 34.949219 -5.625 C 35.148438 -5.574219 35.25 -5.398438 35.25 -5.101562 C 35.25 -4.800781 34.949219 -4.199219 34.347656 -3.300781 C 33.347656 -2.101562 32.796875 -1.425781 32.699219 -1.273438 C 32.597656 -1.125 32.375 -0.875 32.023438 -0.523438 C 31.671875 -0.175781 31.296875 0 30.898438 0 C 30.597656 0 30.375 -0.175781 30.222656 -0.523438 C 30.074219 -0.875 29.847656 -1.050781 29.546875 -1.050781 C 29.25 -1.050781 29 -0.875 28.796875 -0.523438 C 28.597656 -0.175781 28.347656 0 28.046875 0 C 27.847656 0 27.648438 -0.175781 27.449219 -0.523438 C 27.25 -0.875 27 -1.050781 26.699219 -1.050781 C 26.398438 -1.050781 26.171875 -0.875 26.023438 -0.523438 C 25.875 -0.175781 25.648438 0 25.347656 0 C 25.046875 0 24.773438 -0.175781 24.523438 -0.523438 C 24.273438 -0.875 24 -1.050781 23.699219 -1.050781 C 23.398438 -1.050781 23.175781 -0.875 23.023438 -0.523438 C 22.875 -0.175781 22.648438 0 22.347656 0 C 22.050781 0 21.800781 -0.175781 21.597656 -0.523438 C 21.398438 -0.875 21.148438 -1.050781 20.847656 -1.050781 C 20.648438 -1.050781 20.472656 -0.875 20.324219 -0.523438 C 20.175781 -0.175781 19.949219 0 19.648438 0 C 19.347656 0 19.125 -0.175781 18.972656 -0.523438 C 18.824219 -0.875 18.597656 -1.050781 18.300781 -1.050781 C 18 -1.050781 17.773438 -0.925781 17.625 -0.675781 C 17.472656 -0.425781 17.25 -0.300781 16.949219 -0.300781 C 16.648438 -0.300781 16.398438 -0.425781 16.199219 -0.675781 C 16 -0.925781 15.75 -1.050781 15.449219 -1.050781 C 15.148438 -1.050781 14.925781 -0.925781 14.773438 -0.675781 C 14.625 -0.425781 14.398438 -0.300781 14.097656 -0.300781 C 13.699219 -0.300781 13.5 -0.601562 13.5 -1.199219 C 13.5 -1.300781 13.199219 -1.351562 12.597656 -1.351562 C 12.199219 -1.351562 11.75 -1 11.25 -0.300781 C 10.75 -0.800781 10.597656 -1.199219 10.800781 -1.5 C 10.097656 -1.199219 9.800781 -1.050781 9.898438 -1.050781 C 9.597656 -1.050781 9.199219 -1.226562 8.699219 -1.574219 C 8.199219 -1.925781 7.847656 -2.101562 7.648438 -2.101562 C 7.847656 -3 7.726562 -3.675781 7.273438 -4.125 C 6.824219 -4.574219 6.601562 -4.800781 6.601562 -4.800781 C 6.601562 -5.101562 6.773438 -5.699219 7.125 -6.601562 C 7.476562 -7.5 7.648438 -8.097656 7.648438 -8.398438 C 7.648438 -8.699219 7.476562 -9.023438 7.125 -9.375 C 6.773438 -9.722656 6.601562 -10.050781 6.601562 -10.347656 C 6.601562 -10.648438 6.773438 -10.898438 7.125 -11.097656 C 7.476562 -11.300781 7.648438 -11.5 7.648438 -11.699219 C 7.648438 -12.199219 7.300781 -12.699219 6.601562 -13.199219 C 7.300781 -14 7.648438 -14.5 7.648438 -14.699219 C 7.648438 -15 7.523438 -15.25 7.273438 -15.449219 C 7.023438 -15.648438 6.898438 -15.898438 6.898438 -16.199219 C 6.898438 -16.5 7.023438 -16.699219 7.273438 -16.800781 C 7.523438 -16.898438 7.648438 -17.097656 7.648438 -17.398438 C 7.648438 -17.699219 7.523438 -17.925781 7.273438 -18.074219 C 7.023438 -18.222656 6.898438 -18.449219 6.898438 -18.75 C 6.898438 -19.050781 7 -19.472656 7.199219 -20.023438 C 7.398438 -20.574219 7.449219 -20.949219 7.351562 -21.148438 L 7.351562 -21.597656 C 7.351562 -22 7.449219 -22.199219 7.648438 -22.199219 C 7.847656 -22.199219 8.050781 -22.199219 8.25 -22.199219 C 8.25 -22.300781 8.050781 -22.398438 7.648438 -22.5 C 7.648438 -22.699219 7.824219 -22.972656 8.175781 -23.324219 C 8.523438 -23.671875 8.699219 -24.046875 8.699219 -24.449219 C 8.699219 -24.75 8.523438 -24.972656 8.175781 -25.125 C 7.824219 -25.273438 7.648438 -25.5 7.648438 -25.796875 C 7.648438 -26.097656 7.824219 -26.375 8.175781 -26.625 C 8.523438 -26.875 8.699219 -27.148438 8.699219 -27.449219 C 8.699219 -27.75 8.472656 -28.125 8.023438 -28.574219 C 7.574219 -29.023438 7.351562 -29.398438 7.351562 -29.699219 C 7.351562 -30 7.398438 -30.5 7.5 -31.199219 C 7.601562 -31.898438 7.648438 -32.449219 7.648438 -32.847656 C 7.648438 -33.25 7.523438 -33.773438 7.273438 -34.421875 C 7.023438 -35.074219 6.898438 -35.546875 6.898438 -35.847656 C 6.898438 -36.148438 7.023438 -36.347656 7.273438 -36.449219 C 7.523438 -36.546875 7.648438 -36.75 7.648438 -37.046875 C 7.648438 -37.546875 7.300781 -38 6.601562 -38.398438 C 7.300781 -39.296875 7.648438 -39.796875 7.648438 -39.898438 C 7.648438 -40.199219 7.523438 -40.449219 7.273438 -40.648438 C 7.023438 -40.847656 6.898438 -41.097656 6.898438 -41.398438 C 6.898438 -41.699219 7.023438 -41.949219 7.273438 -42.148438 C 7.523438 -42.347656 7.648438 -42.597656 7.648438 -42.898438 C 7.648438 -43.199219 7.523438 -43.398438 7.273438 -43.496094 C 7.023438 -43.597656 6.898438 -43.796875 6.898438 -44.097656 C 6.898438 -44.398438 7.023438 -44.648438 7.273438 -44.847656 C 7.523438 -45.046875 7.648438 -45.296875 7.648438 -45.597656 C 7.648438 -45.898438 7.523438 -46.121094 7.273438 -46.273438 C 7.023438 -46.421875 6.898438 -46.648438 6.898438 -46.949219 C 6.898438 -47.148438 7.023438 -47.324219 7.273438 -47.472656 C 7.523438 -47.621094 7.648438 -47.847656 7.648438 -48.148438 C 7.648438 -48.148438 7.300781 -48.496094 6.601562 -49.199219 C 6.601562 -49.097656 6.898438 -49.496094 7.5 -50.398438 C 7.601562 -50.898438 7.648438 -51.597656 7.648438 -52.496094 C 7.648438 -54.097656 7.300781 -54.996094 6.601562 -55.195312 C 7.300781 -56.195312 7.648438 -56.945312 7.648438 -57.445312 C 7.648438 -57.746094 7.523438 -57.871094 7.273438 -57.820312 C 7.023438 -57.773438 6.898438 -57.847656 6.898438 -58.046875 C 6.898438 -58.347656 7.023438 -59.996094 7.273438 -62.996094 C 7.523438 -65.996094 7.648438 -67.648438 7.648438 -67.945312 C 7.648438 -70.148438 7.601562 -71.097656 7.5 -70.796875 C 6.898438 -71.695312 6.601562 -72.195312 6.601562 -72.296875 C 6.601562 -72.597656 6.699219 -72.820312 6.898438 -72.972656 C 7.101562 -73.121094 7.199219 -73.296875 7.199219 -73.496094 C 7.199219 -73.796875 7.101562 -74.070312 6.898438 -74.320312 C 6.699219 -74.570312 6.601562 -74.847656 6.601562 -75.144531 C 6.601562 -75.445312 6.699219 -75.644531 6.898438 -75.746094 C 7.101562 -75.847656 7.199219 -76.046875 7.199219 -76.347656 C 7.199219 -76.644531 7.101562 -76.945312 6.898438 -77.246094 C 6.699219 -77.546875 6.601562 -77.847656 6.601562 -78.144531 C 6.601562 -78.445312 6.699219 -78.644531 6.898438 -78.746094 C 7.101562 -78.847656 7.199219 -79.046875 7.199219 -79.347656 C 7.199219 -79.644531 7.101562 -79.847656 6.898438 -79.945312 C 6.699219 -80.046875 6.601562 -80.246094 6.601562 -80.546875 C 6.601562 -80.847656 6.699219 -81.097656 6.898438 -81.296875 C 7.101562 -81.496094 7.199219 -81.746094 7.199219 -82.046875 C 7.199219 -82.347656 7.101562 -82.570312 6.898438 -82.722656 C 6.699219 -82.871094 6.601562 -83.097656 6.601562 -83.394531 C 6.601562 -83.695312 6.699219 -83.894531 6.898438 -83.996094 C 7.101562 -84.097656 7.199219 -84.296875 7.199219 -84.597656 C 7.199219 -85.097656 7 -85.246094 6.601562 -85.046875 C 6.601562 -85.445312 6.699219 -85.972656 6.898438 -86.621094 C 7.101562 -87.269531 7.199219 -87.695312 7.199219 -87.894531 C 7.199219 -88.195312 7.101562 -88.46875 6.898438 -88.71875 C 6.699219 -88.96875 6.601562 -89.246094 6.601562 -89.546875 C 6.601562 -89.84375 6.699219 -89.996094 6.898438 -89.996094 C 7.101562 -89.996094 7.199219 -90.144531 7.199219 -90.445312 C 7.199219 -90.84375 7 -90.894531 6.601562 -90.59375 C 6.601562 -90.894531 6.699219 -91.34375 6.898438 -91.945312 C 7.101562 -92.546875 7.199219 -92.996094 7.199219 -93.296875 C 7.199219 -93.59375 7.101562 -93.796875 6.898438 -93.894531 C 6.699219 -93.996094 6.601562 -94.195312 6.601562 -94.496094 C 6.601562 -94.695312 6.949219 -95.09375 7.648438 -95.695312 C 6.949219 -96.996094 6.601562 -97.59375 6.601562 -97.496094 C 6.601562 -97.796875 6.699219 -98.019531 6.898438 -98.171875 C 7.101562 -98.320312 7.199219 -98.546875 7.199219 -98.84375 C 7.199219 -99.144531 7.101562 -99.371094 6.898438 -99.519531 C 6.699219 -99.671875 6.601562 -99.894531 6.601562 -100.195312 C 6.601562 -100.496094 6.699219 -100.746094 6.898438 -100.945312 C 7.101562 -101.144531 7.199219 -101.394531 7.199219 -101.695312 C 7.199219 -101.996094 7.101562 -102.21875 6.898438 -102.371094 C 6.699219 -102.519531 6.601562 -102.746094 6.601562 -103.042969 C 6.601562 -103.34375 6.699219 -103.59375 6.898438 -103.792969 C 7.101562 -103.996094 7.199219 -104.195312 7.199219 -104.394531 C 7.199219 -104.695312 7.101562 -104.996094 6.898438 -105.292969 C 6.699219 -105.59375 6.601562 -105.894531 6.601562 -106.195312 C 6.601562 -106.496094 6.699219 -106.667969 6.898438 -106.71875 C 7.101562 -106.769531 7.199219 -106.945312 7.199219 -107.246094 C 7.199219 -107.644531 7 -107.695312 6.601562 -107.394531 C 6.601562 -108.394531 6.699219 -109.09375 6.898438 -109.496094 C 7.101562 -109.894531 7.199219 -110.09375 7.199219 -110.09375 C 7.199219 -110.394531 7.101562 -110.667969 6.898438 -110.917969 C 6.699219 -111.167969 6.601562 -111.394531 6.601562 -111.59375 C 6.601562 -111.894531 6.699219 -112.121094 6.898438 -112.269531 C 7.101562 -112.417969 7.199219 -112.644531 7.199219 -112.945312 C 7.199219 -113.246094 7.101562 -113.46875 6.898438 -113.621094 C 6.699219 -113.769531 6.601562 -113.996094 6.601562 -114.292969 C 6.601562 -114.59375 6.699219 -114.917969 6.898438 -115.269531 C 7.101562 -115.621094 7.199219 -115.945312 7.199219 -116.246094 C 7.199219 -116.644531 7.050781 -116.945312 6.75 -117.144531 L 8.398438 -117.144531 C 8.398438 -117.542969 8.398438 -118.042969 8.398438 -118.644531 C 8.699219 -118.644531 9.097656 -118.445312 9.597656 -118.042969 C 9.898438 -118.042969 10.300781 -118.492188 10.800781 -119.394531 C 11.097656 -119.394531 11.425781 -119.21875 11.773438 -118.867188 C 12.125 -118.519531 12.398438 -118.34375 12.597656 -118.34375 C 12.898438 -118.34375 13.125 -118.519531 13.273438 -118.867188 C 13.425781 -119.21875 13.648438 -119.394531 13.949219 -119.394531 C 14.25 -119.394531 14.5 -119.21875 14.699219 -118.867188 C 14.898438 -118.519531 15.148438 -118.34375 15.449219 -118.34375 C 15.75 -118.34375 16 -118.519531 16.199219 -118.867188 C 16.398438 -119.21875 16.648438 -119.394531 16.949219 -119.394531 C 17.25 -119.394531 17.449219 -119.21875 17.550781 -118.867188 C 17.648438 -118.519531 17.847656 -118.34375 18.148438 -118.34375 C 18.449219 -118.34375 18.722656 -118.46875 18.972656 -118.71875 C 19.222656 -118.96875 19.5 -119.09375 19.800781 -119.09375 C 20.800781 -119.09375 21.300781 -118.945312 21.300781 -118.644531 C 21.300781 -118.945312 21.175781 -119.042969 20.925781 -118.945312 C 20.675781 -118.84375 20.550781 -118.945312 20.550781 -119.242188 C 20.550781 -119.542969 20.648438 -119.695312 20.847656 -119.695312 C 21.050781 -119.59375 21.199219 -119.542969 21.300781 -119.542969 C 21.199219 -119.644531 21 -119.792969 20.699219 -119.992188 Z M 91.34375 -30.597656 C 92.144531 -29.898438 92.59375 -29.546875 92.695312 -29.546875 C 92.996094 -29.546875 93.246094 -29.699219 93.445312 -30 C 93.644531 -30.296875 93.894531 -30.5 94.195312 -30.597656 C 94.394531 -30.5 94.570312 -30.296875 94.71875 -30 C 94.871094 -29.699219 95.09375 -29.546875 95.394531 -29.546875 C 95.695312 -29.546875 95.945312 -29.648438 96.144531 -29.847656 C 96.34375 -30.046875 96.59375 -30.148438 96.894531 -30.148438 C 97.195312 -30.148438 97.421875 -30.046875 97.570312 -29.847656 C 97.71875 -29.648438 97.945312 -29.546875 98.246094 -29.546875 C 98.445312 -29.546875 98.644531 -29.648438 98.84375 -29.847656 C 99.046875 -30.046875 99.296875 -30.148438 99.59375 -30.148438 C 100.09375 -30.148438 100.695312 -29.546875 101.394531 -28.347656 C 101.296875 -27.847656 101.34375 -27.296875 101.546875 -26.699219 C 101.546875 -26.898438 101.644531 -27.199219 101.84375 -27.597656 C 101.746094 -27.796875 101.695312 -27.449219 101.695312 -26.546875 C 101.695312 -26.25 101.871094 -25.847656 102.21875 -25.347656 C 102.570312 -24.847656 102.746094 -24.5 102.746094 -24.296875 C 102.746094 -24 102.621094 -23.773438 102.371094 -23.625 C 102.121094 -23.472656 101.996094 -23.25 101.996094 -22.949219 C 101.996094 -22.648438 102.121094 -22.425781 102.371094 -22.273438 C 102.621094 -22.125 102.746094 -21.898438 102.746094 -21.597656 C 102.746094 -21.300781 102.621094 -21.074219 102.371094 -20.925781 C 102.121094 -20.773438 101.996094 -20.550781 101.996094 -20.25 C 101.996094 -19.550781 102.195312 -19.347656 102.59375 -19.648438 C 102.695312 -19.347656 102.621094 -18.972656 102.371094 -18.523438 C 102.121094 -18.074219 101.996094 -17.699219 101.996094 -17.398438 C 101.996094 -16.699219 102.195312 -16.5 102.59375 -16.800781 C 102.695312 -16.5 102.621094 -16.148438 102.371094 -15.75 C 102.121094 -15.347656 101.996094 -15 101.996094 -14.699219 C 101.996094 -14.398438 102.144531 -14.125 102.445312 -13.875 C 102.746094 -13.625 102.945312 -13.398438 103.042969 -13.199219 C 102.34375 -11.699219 101.996094 -11.097656 101.996094 -11.398438 C 101.996094 -10.800781 102.195312 -10.597656 102.59375 -10.800781 C 102.59375 -10.5 102.394531 -10.300781 101.996094 -10.199219 C 101.996094 -9.699219 102.09375 -8.949219 102.292969 -7.949219 L 102.746094 -7.949219 C 101.34375 -6.351562 100.644531 -5.324219 100.644531 -4.875 C 100.644531 -4.425781 100.34375 -4.050781 99.746094 -3.75 C 99.144531 -3.449219 98.84375 -3.199219 98.84375 -3 C 98.546875 -2.898438 97.996094 -2.851562 97.195312 -2.851562 C 96.894531 -2.851562 96.394531 -3.023438 95.695312 -3.375 C 94.996094 -3.726562 94.496094 -3.898438 94.195312 -3.898438 C 93.496094 -3.898438 93.296875 -3.699219 93.59375 -3.300781 C 93.296875 -3.199219 92.945312 -3.273438 92.546875 -3.523438 C 92.144531 -3.773438 91.796875 -3.898438 91.496094 -3.898438 C 91.195312 -3.898438 90.921875 -3.726562 90.671875 -3.375 C 90.421875 -3.023438 90.195312 -2.851562 89.996094 -2.851562 C 89.296875 -2.851562 88.796875 -3.199219 88.496094 -3.898438 C 87.996094 -3.199219 87.546875 -2.851562 87.144531 -2.851562 C 86.84375 -2.851562 86.570312 -3.023438 86.320312 -3.375 C 86.070312 -3.726562 85.796875 -3.898438 85.496094 -3.898438 C 85.195312 -3.898438 84.644531 -3.726562 83.847656 -3.375 C 83.046875 -3.023438 82.496094 -2.851562 82.195312 -2.851562 C 81.894531 -2.851562 81.546875 -2.949219 81.144531 -3.148438 C 80.746094 -3.351562 80.394531 -3.449219 80.097656 -3.449219 C 79.796875 -3.449219 79.519531 -3.351562 79.269531 -3.148438 C 79.019531 -2.949219 78.746094 -2.851562 78.445312 -2.851562 C 78.246094 -2.851562 78.070312 -2.949219 77.921875 -3.148438 C 77.769531 -3.351562 77.546875 -3.449219 77.246094 -3.449219 C 76.945312 -3.449219 76.695312 -3.351562 76.496094 -3.148438 C 76.296875 -2.949219 76.046875 -2.851562 75.746094 -2.851562 C 75.347656 -2.851562 74.945312 -3.199219 74.546875 -3.898438 C 74.144531 -3.101562 73.644531 -2.75 73.046875 -2.851562 C 72.445312 -2.949219 72.144531 -2.75 72.144531 -2.25 C 72.144531 -2.648438 71.996094 -2.800781 71.695312 -2.699219 C 70.894531 -2.5 70.496094 -2.398438 70.496094 -2.398438 C 70.195312 -2.398438 69.921875 -2.226562 69.671875 -1.875 C 69.421875 -1.523438 69.148438 -1.351562 68.847656 -1.351562 C 68.546875 -1.351562 68.320312 -1.523438 68.171875 -1.875 C 68.023438 -2.226562 67.796875 -2.398438 67.496094 -2.398438 C 67.097656 -2.398438 66.597656 -2.199219 65.996094 -1.800781 C 65.597656 -2.699219 65.148438 -3.148438 64.648438 -3.148438 C 63.847656 -3.050781 63.398438 -3.050781 63.296875 -3.148438 C 63.296875 -2.851562 63.148438 -2.398438 62.847656 -1.800781 C 62.347656 -2.199219 61.945312 -2.398438 61.648438 -2.398438 C 61.746094 -2.398438 61.296875 -2.050781 60.296875 -1.351562 C 60.195312 -2.148438 60.195312 -2.550781 60.296875 -2.550781 C 59.296875 -2.949219 58.398438 -3.148438 57.597656 -3.148438 C 57.296875 -3.148438 56.820312 -2.925781 56.171875 -2.476562 C 55.523438 -2.023438 55.046875 -1.800781 54.746094 -1.800781 C 54.449219 -1.800781 53.949219 -2.199219 53.246094 -3 C 52.546875 -3.800781 51.949219 -4.351562 51.449219 -4.648438 C 51.449219 -4.75 51.574219 -4.949219 51.824219 -5.25 C 52.074219 -5.550781 52.199219 -5.851562 52.199219 -6.148438 C 52.199219 -6.449219 52.074219 -6.726562 51.824219 -6.976562 C 51.574219 -7.226562 51.449219 -7.5 51.449219 -7.800781 C 51.449219 -8 51.574219 -8.222656 51.824219 -8.472656 C 52.074219 -8.722656 52.199219 -9 52.199219 -9.300781 C 52.199219 -9.597656 52.074219 -9.773438 51.824219 -9.824219 C 51.574219 -9.875 51.449219 -10.050781 51.449219 -10.347656 C 51.449219 -10.648438 51.621094 -10.898438 51.972656 -11.097656 C 52.324219 -11.300781 52.496094 -11.5 52.496094 -11.699219 C 52.496094 -12.199219 52.148438 -12.699219 51.449219 -13.199219 C 52.148438 -14 52.496094 -14.449219 52.496094 -14.550781 C 52.496094 -14.847656 52.398438 -15.125 52.199219 -15.375 C 51.996094 -15.625 51.898438 -15.898438 51.898438 -16.199219 C 51.898438 -16.5 51.996094 -16.699219 52.199219 -16.800781 C 52.398438 -16.898438 52.496094 -17.097656 52.496094 -17.398438 C 52.496094 -17.699219 52.398438 -17.925781 52.199219 -18.074219 C 51.996094 -18.222656 51.898438 -18.449219 51.898438 -18.75 C 51.898438 -18.847656 52.246094 -19.597656 52.949219 -21 C 52.746094 -21 52.246094 -21.199219 51.449219 -21.597656 C 52.449219 -22.800781 52.949219 -23.546875 52.949219 -23.847656 C 52.949219 -24.148438 52.699219 -24.148438 52.199219 -23.847656 C 53.097656 -25.546875 53.597656 -27.148438 53.699219 -28.648438 C 53.796875 -28.449219 53.949219 -28.148438 54.148438 -27.75 C 54.546875 -28.046875 55.246094 -28.648438 56.246094 -29.546875 C 57.046875 -28.847656 57.398438 -28.449219 57.296875 -28.347656 C 58.097656 -28.847656 58.695312 -29.097656 59.097656 -29.097656 C 59.597656 -29.199219 59.945312 -28.949219 60.148438 -28.347656 C 60.746094 -28.449219 60.898438 -28.699219 60.597656 -29.097656 C 60.898438 -29.097656 61.347656 -29 61.945312 -28.796875 C 62.546875 -28.597656 62.996094 -28.5 63.296875 -28.5 C 63.597656 -28.5 63.695312 -28.648438 63.597656 -28.949219 C 64.097656 -29.347656 64.597656 -29.574219 65.097656 -29.625 C 65.597656 -29.671875 65.746094 -29.847656 65.546875 -30.148438 C 65.847656 -30.046875 66.046875 -29.796875 66.148438 -29.398438 C 68.148438 -29.398438 69.570312 -29.25 70.421875 -28.949219 C 71.269531 -28.648438 71.695312 -28.5 71.695312 -28.5 C 71.996094 -28.5 72.222656 -28.648438 72.371094 -28.949219 C 72.519531 -29.25 72.644531 -29.398438 72.746094 -29.398438 C 72.445312 -29.5 73.445312 -29.546875 75.746094 -29.546875 C 78.246094 -29.546875 79.695312 -29.199219 80.097656 -28.5 C 80.597656 -29.199219 81.046875 -29.546875 81.445312 -29.546875 C 81.847656 -29.546875 82.144531 -29.398438 82.347656 -29.097656 C 82.546875 -28.898438 82.546875 -28.75 82.347656 -28.648438 C 82.945312 -28.75 83.621094 -29.023438 84.371094 -29.472656 C 85.121094 -29.921875 85.546875 -30.148438 85.644531 -30.148438 C 85.945312 -30.148438 86.195312 -30.046875 86.394531 -29.847656 C 86.59375 -29.648438 86.84375 -29.546875 87.144531 -29.546875 C 88.144531 -29.347656 88.445312 -29.546875 88.046875 -30.148438 C 88.144531 -30.148438 88.34375 -30.046875 88.644531 -29.847656 C 88.945312 -29.648438 89.246094 -29.546875 89.546875 -29.546875 C 89.945312 -29.546875 90.296875 -29.699219 90.59375 -30 C 90.894531 -30.296875 91.144531 -30.5 91.34375 -30.597656 Z M 91.34375 -30.597656 "/></g></g></g><g fill="#ffffff" fill-opacity="1"><g transform="translate(568.150689, 412.213535)"><g><path d="M 11.851562 -120 C 12.148438 -120 12.851562 -119.875 13.949219 -119.625 C 15.050781 -119.375 15.75 -119.25 16.050781 -119.25 C 16.75 -119.25 17.148438 -119.5 17.25 -120 L 110.851562 -120 C 111.148438 -120 111.425781 -119.875 111.675781 -119.625 C 111.925781 -119.375 112.101562 -119.199219 112.199219 -119.101562 C 112.898438 -118.398438 113.699219 -117.351562 114.601562 -115.949219 L 114.601562 -105 C 114.601562 -104.699219 114.5 -104.476562 114.300781 -104.324219 C 114.101562 -104.175781 114 -103.949219 114 -103.648438 C 114 -103.351562 114.101562 -103 114.300781 -102.601562 C 114.5 -102.199219 114.601562 -101.851562 114.601562 -101.550781 C 114.601562 -100.25 113.101562 -98.101562 110.101562 -95.101562 C 109.800781 -95.101562 109.199219 -94.949219 108.300781 -94.648438 C 107.398438 -94.351562 106.800781 -94.199219 106.5 -94.199219 C 106.199219 -94.199219 105.75 -94.324219 105.148438 -94.574219 C 104.550781 -94.824219 104.101562 -94.949219 103.800781 -94.949219 C 103.101562 -94.949219 102.699219 -94.75 102.601562 -94.351562 L 94.648438 -94.351562 C 94.851562 -94.351562 94.648438 -94.550781 94.050781 -94.949219 C 93.648438 -94.949219 92.949219 -94.949219 91.949219 -94.949219 C 90.550781 -94.949219 89.75 -94.699219 89.550781 -94.199219 L 71.851562 -94.199219 C 71.550781 -94.199219 71.425781 -94.324219 71.476562 -94.574219 C 71.523438 -94.824219 71.398438 -94.949219 71.101562 -94.949219 L 63.449219 -94.949219 C 63.351562 -94.949219 63.175781 -94.851562 62.925781 -94.648438 C 62.675781 -94.449219 61.550781 -94.351562 59.550781 -94.351562 C 57.949219 -94.351562 56.949219 -94.101562 56.550781 -93.601562 L 49.351562 -93.601562 C 49.050781 -93.601562 48.949219 -93.699219 49.050781 -93.898438 C 49.148438 -94.101562 49.050781 -94.199219 48.75 -94.199219 L 14.550781 -94.199219 C 14.25 -94.199219 14.148438 -94.101562 14.25 -93.898438 C 14.351562 -93.699219 14.25 -93.601562 13.949219 -93.601562 L 6.75 -93.601562 C 5.851562 -94.5 4.898438 -95.050781 3.898438 -95.25 C 3.800781 -95.851562 3.625 -96.75 3.375 -97.949219 C 3.125 -99.148438 3 -99.898438 3 -100.199219 C 3 -101.398438 3.050781 -102.398438 3.148438 -103.199219 C 3.550781 -102.800781 3.75 -102.898438 3.75 -103.5 L 3.75 -112.199219 C 3.75 -112.5 3.625 -112.699219 3.375 -112.800781 C 3.125 -112.898438 3 -113.101562 3 -113.398438 C 3 -113.898438 3.5 -115.199219 4.5 -117.300781 C 4.800781 -117.699219 6.300781 -118.550781 9 -119.851562 C 9.5 -119.949219 10.449219 -120 11.851562 -120 Z M 52.648438 -68.550781 C 52.851562 -68.550781 53.199219 -68.300781 53.699219 -67.800781 L 68.550781 -67.800781 C 70.550781 -65.199219 71.550781 -63.851562 71.550781 -63.75 C 71.550781 -63.449219 71.425781 -63.351562 71.175781 -63.449219 C 70.925781 -63.550781 70.800781 -63.449219 70.800781 -63.148438 C 70.800781 -62.851562 70.925781 -62.726562 71.175781 -62.773438 C 71.425781 -62.824219 71.550781 -62.699219 71.550781 -62.398438 C 71.550781 -62.101562 71.425781 -61.976562 71.175781 -62.023438 C 70.925781 -62.074219 70.800781 -61.949219 70.800781 -61.648438 L 70.800781 -15.75 C 70.800781 -15.75 70.675781 -15.523438 70.425781 -15.074219 C 70.175781 -14.625 70.050781 -14.199219 70.050781 -13.800781 C 70.050781 -12.601562 70.300781 -11.949219 70.800781 -11.851562 L 70.800781 -3 C 69.800781 -2.699219 68.800781 -1.949219 67.800781 -0.75 L 59.101562 -0.75 C 59 -0.75 58.851562 -0.550781 58.648438 -0.148438 C 58.148438 -0.0507812 57.199219 0 55.800781 0 C 55.5 0 54.300781 -0.148438 52.199219 -0.449219 C 49.800781 -0.648438 48.101562 -0.800781 47.101562 -0.898438 C 46.601562 -1.601562 45.699219 -2.550781 44.398438 -3.75 L 44.398438 -12.601562 C 44.398438 -12.898438 44.449219 -13.050781 44.550781 -13.050781 C 44.851562 -12.949219 45 -12.898438 45 -12.898438 L 45 -24.601562 C 45 -24.898438 45.101562 -25 45.300781 -24.898438 C 45.5 -24.800781 45.648438 -24.800781 45.75 -24.898438 L 45.75 -64.050781 C 45.75 -64.75 46.226562 -65.5 47.175781 -66.300781 C 48.125 -67.101562 48.851562 -67.550781 49.351562 -67.648438 C 49.851562 -67.75 50.648438 -67.851562 51.75 -67.949219 C 52.351562 -68.351562 52.648438 -68.550781 52.648438 -68.550781 Z M 52.648438 -68.550781 "/></g></g></g><g fill="#ffffff" fill-opacity="1"><g transform="translate(357.302944, 621.355621)"><g><path d="M 49.949219 -120 C 51.949219 -120 53.273438 -119.824219 53.925781 -119.476562 C 54.574219 -119.125 55.5 -117.949219 56.699219 -115.949219 L 56.699219 -108.75 C 56.699219 -108.75 56.574219 -108.476562 56.324219 -107.925781 C 56.074219 -107.375 55.949219 -106.898438 55.949219 -106.5 C 55.949219 -106.199219 56.199219 -105.25 56.699219 -103.648438 C 57.199219 -102.050781 57.449219 -101.101562 57.449219 -100.800781 C 57.449219 -100.800781 57.25 -100.5 56.851562 -99.898438 C 57.351562 -97.199219 56.300781 -95 53.699219 -93.300781 C 48.398438 -91.800781 43.351562 -88.050781 38.550781 -82.050781 C 37.851562 -80.550781 36.851562 -78.5 35.550781 -75.898438 C 35.25 -75.699219 34.800781 -75.25 34.199219 -74.550781 C 34.199219 -73.851562 34.101562 -73 33.898438 -72 C 33.699219 -71.398438 33.449219 -70.199219 33.148438 -68.398438 C 32.75 -68.699219 32.550781 -68.5 32.550781 -67.800781 L 32.550781 -55.648438 C 32.550781 -55.550781 32.75 -55.398438 33.148438 -55.199219 C 33.351562 -52.199219 33.699219 -50 34.199219 -48.601562 C 34.5 -48.398438 34.949219 -48 35.550781 -47.398438 C 35.949219 -46 36.699219 -44.148438 37.800781 -41.851562 C 39.101562 -40.351562 40.75 -37.898438 42.75 -34.5 C 44.351562 -33.398438 46.949219 -32.148438 50.550781 -30.75 C 51.648438 -29.75 52.800781 -28.75 54 -27.75 C 55.300781 -26.449219 55.949219 -25.050781 55.949219 -23.550781 C 55.949219 -18.050781 55.949219 -12.351562 55.949219 -6.449219 C 55.851562 -6.25 55.648438 -5.25 55.351562 -3.449219 C 54.75 -2.949219 54.199219 -2.398438 53.699219 -1.800781 C 53.5 -1.699219 53.125 -1.5 52.574219 -1.199219 C 52.023438 -0.898438 51.550781 -0.75 51.148438 -0.75 C 51.351562 -0.75 51.101562 -1 50.398438 -1.5 C 49.800781 -1.5 48.898438 -1.601562 47.699219 -1.800781 C 46.800781 -3 45.351562 -4.050781 43.351562 -4.949219 C 40.75 -6.148438 39.148438 -7.023438 38.550781 -7.574219 C 37.949219 -8.125 36.898438 -9 35.398438 -10.199219 C 33.199219 -11.101562 30.050781 -12.648438 25.949219 -14.851562 C 25.75 -14.949219 24.601562 -16.648438 22.5 -19.949219 C 22.5 -19.949219 21.800781 -20.5 20.398438 -21.601562 C 20.398438 -21.800781 20.300781 -22.148438 20.101562 -22.648438 C 18.699219 -24.550781 16.300781 -27.648438 12.898438 -31.949219 C 12 -32.949219 11.199219 -34.398438 10.5 -36.300781 C 10.5 -36.699219 10.398438 -37.300781 10.199219 -38.101562 C 9.699219 -38.800781 9 -39.800781 8.101562 -41.101562 C 8 -42.398438 7.550781 -44.050781 6.75 -46.050781 L 6.75 -53.699219 C 6.75 -54.101562 6.699219 -54.25 6.601562 -54.148438 C 6.398438 -53.949219 6.199219 -53.851562 6 -53.851562 L 6 -69.601562 C 6 -70 6.101562 -70.148438 6.300781 -70.050781 C 6.5 -69.949219 6.648438 -69.949219 6.75 -70.050781 L 6.75 -77.851562 C 6.75 -78.25 6.851562 -78.398438 7.050781 -78.300781 C 7.25 -78.199219 7.398438 -78.199219 7.5 -78.300781 C 7.601562 -80.898438 8.050781 -82.75 8.851562 -83.851562 C 10.148438 -86.25 12.300781 -89.800781 15.300781 -94.5 C 15.800781 -94.898438 16.5 -95.601562 17.398438 -96.601562 C 17.398438 -97 17.601562 -97.601562 18 -98.398438 C 18.898438 -99.101562 20.148438 -100.199219 21.75 -101.699219 C 21.75 -101.898438 21.800781 -102.25 21.898438 -102.75 C 22.398438 -103.050781 23.050781 -103.449219 23.851562 -103.949219 C 24.949219 -105.25 26.601562 -107 28.800781 -109.199219 C 29.199219 -109.199219 29.800781 -109.398438 30.601562 -109.800781 C 31.699219 -110.898438 33.675781 -112.273438 36.523438 -113.925781 C 39.375 -115.574219 41.398438 -117.050781 42.601562 -118.351562 C 43.898438 -118.449219 45.148438 -118.75 46.351562 -119.25 C 47.550781 -119.75 48.75 -120 49.949219 -120 Z M 86.398438 -120 C 87.601562 -120 88.851562 -119.699219 90.148438 -119.101562 C 91.851562 -117.699219 94.5 -115.949219 98.101562 -113.851562 C 99 -113.648438 100.148438 -113.300781 101.550781 -112.800781 C 101.851562 -112.601562 102.175781 -112.199219 102.523438 -111.601562 C 102.875 -111 103.148438 -110.648438 103.351562 -110.550781 C 104.148438 -110.351562 105.300781 -109.898438 106.800781 -109.199219 C 107.398438 -108.5 108.351562 -107.5 109.648438 -106.199219 C 110.851562 -105.398438 112 -104.601562 113.101562 -103.800781 C 115.101562 -102.101562 116.101562 -100.699219 116.101562 -99.601562 C 116.101562 -98.398438 115.25 -96.75 113.550781 -94.648438 C 112.351562 -93.148438 111.398438 -92.148438 110.699219 -91.648438 C 108.101562 -89.75 105.050781 -87.25 101.550781 -84.148438 C 101.050781 -84.050781 100.199219 -84 99 -84 C 96.898438 -84 95.023438 -85.324219 93.375 -87.976562 C 91.726562 -90.625 89.75 -92.101562 87.449219 -92.398438 C 86.148438 -93.199219 84.398438 -94.550781 82.199219 -96.449219 C 82.101562 -96.949219 81.925781 -97.851562 81.675781 -99.148438 C 81.425781 -100.449219 81.300781 -101.25 81.300781 -101.550781 C 81.300781 -102.949219 81.300781 -103.898438 81.300781 -104.398438 C 81.800781 -104 82.050781 -104.101562 82.050781 -104.699219 L 82.050781 -113.550781 C 82.050781 -113.851562 81.925781 -114.050781 81.675781 -114.148438 C 81.425781 -114.25 81.300781 -114.5 81.300781 -114.898438 C 81.300781 -115.199219 81.550781 -115.875 82.050781 -116.925781 C 82.550781 -117.976562 82.851562 -118.699219 82.949219 -119.101562 C 84.351562 -119.699219 85.5 -120 86.398438 -120 Z M 99 -36.898438 C 100.601562 -36.898438 102.074219 -36.398438 103.425781 -35.398438 C 104.773438 -34.398438 106.148438 -33.398438 107.550781 -32.398438 C 109.25 -30.898438 111.75 -28.75 115.050781 -25.949219 C 115.351562 -25.75 115.875 -24.851562 116.625 -23.25 C 117.375 -21.648438 117.75 -20.699219 117.75 -20.398438 C 117.75 -19.5 116.601562 -17.898438 114.300781 -15.601562 C 114.199219 -15.601562 113.851562 -15.550781 113.25 -15.449219 C 112.648438 -14.351562 112.050781 -13.601562 111.449219 -13.199219 C 110.550781 -13 109.148438 -12.550781 107.25 -11.851562 C 106.148438 -10.648438 104.25 -9.148438 101.550781 -7.351562 C 100.949219 -7.050781 99.800781 -6.699219 98.101562 -6.300781 C 97.898438 -5.898438 97.5 -5.449219 96.898438 -4.949219 C 95.199219 -3.851562 93.5 -2.800781 91.800781 -1.800781 C 89.800781 -0.601562 87.949219 0 86.25 0 C 84.351562 0 82.773438 -0.601562 81.523438 -1.800781 C 80.273438 -3 79.648438 -4.398438 79.648438 -6 C 79.648438 -6.5 79.898438 -7.199219 80.398438 -8.101562 L 80.398438 -16.050781 C 80.398438 -16.449219 80.5 -16.601562 80.699219 -16.5 C 80.898438 -16.398438 81.050781 -16.398438 81.148438 -16.5 C 81.25 -17 81.300781 -17.75 81.300781 -18.75 C 81.300781 -19.148438 81.148438 -19.875 80.851562 -20.925781 C 80.550781 -21.976562 80.398438 -22.648438 80.398438 -22.949219 C 80.398438 -25.449219 81.949219 -27.550781 85.050781 -29.25 C 86.351562 -29.851562 87.648438 -30.449219 88.949219 -31.050781 C 90.648438 -31.851562 91.949219 -32.800781 92.851562 -33.898438 C 93.351562 -34 94 -34.648438 94.800781 -35.851562 C 96.699219 -36.550781 98.101562 -36.898438 99 -36.898438 Z M 99 -36.898438 "/></g></g></g></svg>