
<svg id="Layer_1" data-name="Layer 1" xmlns="http://www.w3.org/2000/svg" viewBox="0 0 120 175">
<path fill="#ffffff" d="M31.14,175a3.08,3.08,0,0,1-1.35-.27A3.55,3.55,0,0,1,27.84,170L40.3,139.25A60.17,60.17,0,0,1,86.83,41.94a2.42,2.42,0,0,1,.67.07,2,2,0,0,1,.67-.07,58.88,58.88,0,0,1,26,6.22L122,21.4,109.72,37.48a3.63,3.63,0,0,1-5.12.68,3.68,3.68,0,0,1-.67-5.14L128.1,1.47a3.76,3.76,0,0,1,.74-.75l.68-.4h0a3.72,3.72,0,0,1,2.42-.21h0c.07,0,.07,0,.14.07h0a3.63,3.63,0,0,1,2,1.56,6,6,0,0,1,.33.67,3.71,3.71,0,0,1,.2,1.22L136.45,43a3.6,3.6,0,1,1-7.2.34l-.81-17.91L120.63,52a61.53,61.53,0,0,1,9.29,7.64A60.18,60.18,0,0,1,88.17,162.36a59.36,59.36,0,0,1-42.35-17L34.57,172.84A4,4,0,0,1,31.14,175ZM118.41,59.24,90.13,154.86a52.14,52.14,0,0,0,34.94-15.81,53.17,53.17,0,0,0-6.66-79.81ZM48.72,137.9a52.54,52.54,0,0,0,33.19,16.76L79,63.91Zm37-88.66,2.83,85.55L112,55.32a53.31,53.31,0,0,0-24-6.08,1.27,1.27,0,0,1-.54-.07c-.2,0-.4.07-.54.07A7.81,7.81,0,0,0,85.68,49.24Zm-9.09,1.08a51.75,51.75,0,0,0-26.8,14.8,53,53,0,0,0-6.19,66.23Z" transform="translate(-27.5)"/></svg>